<mxfile host="app.diagrams.net" agent="Mozilla/5.0 (Windows NT 10.0; Win64; x64) AppleWebKit/537.36 (KHTML, like Gecko) Chrome/136.0.0.0 Safari/537.36" version="27.0.5">
  <diagram name="Page-1" id="VhODeheBOYZsxXw2ZVtC">
    <mxGraphModel dx="371" dy="1289" grid="1" gridSize="10" guides="1" tooltips="1" connect="1" arrows="1" fold="1" page="1" pageScale="1" pageWidth="827" pageHeight="1169" math="0" shadow="0">
      <root>
        <mxCell id="0" />
        <mxCell id="1" parent="0" />
        <mxCell id="x0yfb88HtxfDjiXEh2D_-18" value="USER" style="shape=table;startSize=25;container=1;collapsible=0;childLayout=tableLayout;fixedRows=1;rowLines=1;fontStyle=1;align=center;resizeLast=1;" vertex="1" parent="1">
          <mxGeometry x="420" y="40" width="523" height="385" as="geometry" />
        </mxCell>
        <mxCell id="x0yfb88HtxfDjiXEh2D_-19" style="shape=tableRow;horizontal=0;startSize=0;swimlaneHead=0;swimlaneBody=0;fillColor=none;collapsible=0;dropTarget=0;points=[[0,0.5],[1,0.5]];portConstraint=eastwest;top=0;left=0;right=0;bottom=0;" vertex="1" parent="x0yfb88HtxfDjiXEh2D_-18">
          <mxGeometry y="25" width="523" height="45" as="geometry" />
        </mxCell>
        <mxCell id="x0yfb88HtxfDjiXEh2D_-20" value="UUID" style="shape=partialRectangle;connectable=0;fillColor=none;top=0;left=0;bottom=0;right=0;align=left;spacingLeft=2;overflow=hidden;fontSize=11;" vertex="1" parent="x0yfb88HtxfDjiXEh2D_-19">
          <mxGeometry width="54" height="45" as="geometry">
            <mxRectangle width="54" height="45" as="alternateBounds" />
          </mxGeometry>
        </mxCell>
        <mxCell id="x0yfb88HtxfDjiXEh2D_-21" value="user_id" style="shape=partialRectangle;connectable=0;fillColor=none;top=0;left=0;bottom=0;right=0;align=left;spacingLeft=2;overflow=hidden;fontSize=11;" vertex="1" parent="x0yfb88HtxfDjiXEh2D_-19">
          <mxGeometry x="54" width="279" height="45" as="geometry">
            <mxRectangle width="279" height="45" as="alternateBounds" />
          </mxGeometry>
        </mxCell>
        <mxCell id="x0yfb88HtxfDjiXEh2D_-22" value="PK" style="shape=partialRectangle;connectable=0;fillColor=none;top=0;left=0;bottom=0;right=0;align=left;spacingLeft=2;overflow=hidden;fontSize=11;" vertex="1" parent="x0yfb88HtxfDjiXEh2D_-19">
          <mxGeometry x="333" width="22" height="45" as="geometry">
            <mxRectangle width="22" height="45" as="alternateBounds" />
          </mxGeometry>
        </mxCell>
        <mxCell id="x0yfb88HtxfDjiXEh2D_-23" value="Primary Key, Indexed" style="shape=partialRectangle;connectable=0;fillColor=none;top=0;left=0;bottom=0;right=0;align=left;spacingLeft=2;overflow=hidden;fontSize=11;" vertex="1" parent="x0yfb88HtxfDjiXEh2D_-19">
          <mxGeometry x="355" width="168" height="45" as="geometry">
            <mxRectangle width="168" height="45" as="alternateBounds" />
          </mxGeometry>
        </mxCell>
        <mxCell id="x0yfb88HtxfDjiXEh2D_-24" style="shape=tableRow;horizontal=0;startSize=0;swimlaneHead=0;swimlaneBody=0;fillColor=none;collapsible=0;dropTarget=0;points=[[0,0.5],[1,0.5]];portConstraint=eastwest;top=0;left=0;right=0;bottom=0;" vertex="1" parent="x0yfb88HtxfDjiXEh2D_-18">
          <mxGeometry y="70" width="523" height="45" as="geometry" />
        </mxCell>
        <mxCell id="x0yfb88HtxfDjiXEh2D_-25" value="VARCHAR" style="shape=partialRectangle;connectable=0;fillColor=none;top=0;left=0;bottom=0;right=0;align=left;spacingLeft=2;overflow=hidden;fontSize=11;" vertex="1" parent="x0yfb88HtxfDjiXEh2D_-24">
          <mxGeometry width="54" height="45" as="geometry">
            <mxRectangle width="54" height="45" as="alternateBounds" />
          </mxGeometry>
        </mxCell>
        <mxCell id="x0yfb88HtxfDjiXEh2D_-26" value="first_name" style="shape=partialRectangle;connectable=0;fillColor=none;top=0;left=0;bottom=0;right=0;align=left;spacingLeft=2;overflow=hidden;fontSize=11;" vertex="1" parent="x0yfb88HtxfDjiXEh2D_-24">
          <mxGeometry x="54" width="279" height="45" as="geometry">
            <mxRectangle width="279" height="45" as="alternateBounds" />
          </mxGeometry>
        </mxCell>
        <mxCell id="x0yfb88HtxfDjiXEh2D_-27" value="" style="shape=partialRectangle;connectable=0;fillColor=none;top=0;left=0;bottom=0;right=0;align=left;spacingLeft=2;overflow=hidden;fontSize=11;" vertex="1" parent="x0yfb88HtxfDjiXEh2D_-24">
          <mxGeometry x="333" width="22" height="45" as="geometry">
            <mxRectangle width="22" height="45" as="alternateBounds" />
          </mxGeometry>
        </mxCell>
        <mxCell id="x0yfb88HtxfDjiXEh2D_-28" value="NOT NULL" style="shape=partialRectangle;connectable=0;fillColor=none;top=0;left=0;bottom=0;right=0;align=left;spacingLeft=2;overflow=hidden;fontSize=11;" vertex="1" parent="x0yfb88HtxfDjiXEh2D_-24">
          <mxGeometry x="355" width="168" height="45" as="geometry">
            <mxRectangle width="168" height="45" as="alternateBounds" />
          </mxGeometry>
        </mxCell>
        <mxCell id="x0yfb88HtxfDjiXEh2D_-29" style="shape=tableRow;horizontal=0;startSize=0;swimlaneHead=0;swimlaneBody=0;fillColor=none;collapsible=0;dropTarget=0;points=[[0,0.5],[1,0.5]];portConstraint=eastwest;top=0;left=0;right=0;bottom=0;" vertex="1" parent="x0yfb88HtxfDjiXEh2D_-18">
          <mxGeometry y="115" width="523" height="45" as="geometry" />
        </mxCell>
        <mxCell id="x0yfb88HtxfDjiXEh2D_-30" value="VARCHAR" style="shape=partialRectangle;connectable=0;fillColor=none;top=0;left=0;bottom=0;right=0;align=left;spacingLeft=2;overflow=hidden;fontSize=11;" vertex="1" parent="x0yfb88HtxfDjiXEh2D_-29">
          <mxGeometry width="54" height="45" as="geometry">
            <mxRectangle width="54" height="45" as="alternateBounds" />
          </mxGeometry>
        </mxCell>
        <mxCell id="x0yfb88HtxfDjiXEh2D_-31" value="last_name" style="shape=partialRectangle;connectable=0;fillColor=none;top=0;left=0;bottom=0;right=0;align=left;spacingLeft=2;overflow=hidden;fontSize=11;" vertex="1" parent="x0yfb88HtxfDjiXEh2D_-29">
          <mxGeometry x="54" width="279" height="45" as="geometry">
            <mxRectangle width="279" height="45" as="alternateBounds" />
          </mxGeometry>
        </mxCell>
        <mxCell id="x0yfb88HtxfDjiXEh2D_-32" value="" style="shape=partialRectangle;connectable=0;fillColor=none;top=0;left=0;bottom=0;right=0;align=left;spacingLeft=2;overflow=hidden;fontSize=11;" vertex="1" parent="x0yfb88HtxfDjiXEh2D_-29">
          <mxGeometry x="333" width="22" height="45" as="geometry">
            <mxRectangle width="22" height="45" as="alternateBounds" />
          </mxGeometry>
        </mxCell>
        <mxCell id="x0yfb88HtxfDjiXEh2D_-33" value="NOT NULL" style="shape=partialRectangle;connectable=0;fillColor=none;top=0;left=0;bottom=0;right=0;align=left;spacingLeft=2;overflow=hidden;fontSize=11;" vertex="1" parent="x0yfb88HtxfDjiXEh2D_-29">
          <mxGeometry x="355" width="168" height="45" as="geometry">
            <mxRectangle width="168" height="45" as="alternateBounds" />
          </mxGeometry>
        </mxCell>
        <mxCell id="x0yfb88HtxfDjiXEh2D_-34" style="shape=tableRow;horizontal=0;startSize=0;swimlaneHead=0;swimlaneBody=0;fillColor=none;collapsible=0;dropTarget=0;points=[[0,0.5],[1,0.5]];portConstraint=eastwest;top=0;left=0;right=0;bottom=0;" vertex="1" parent="x0yfb88HtxfDjiXEh2D_-18">
          <mxGeometry y="160" width="523" height="45" as="geometry" />
        </mxCell>
        <mxCell id="x0yfb88HtxfDjiXEh2D_-35" value="VARCHAR" style="shape=partialRectangle;connectable=0;fillColor=none;top=0;left=0;bottom=0;right=0;align=left;spacingLeft=2;overflow=hidden;fontSize=11;" vertex="1" parent="x0yfb88HtxfDjiXEh2D_-34">
          <mxGeometry width="54" height="45" as="geometry">
            <mxRectangle width="54" height="45" as="alternateBounds" />
          </mxGeometry>
        </mxCell>
        <mxCell id="x0yfb88HtxfDjiXEh2D_-36" value="email" style="shape=partialRectangle;connectable=0;fillColor=none;top=0;left=0;bottom=0;right=0;align=left;spacingLeft=2;overflow=hidden;fontSize=11;" vertex="1" parent="x0yfb88HtxfDjiXEh2D_-34">
          <mxGeometry x="54" width="279" height="45" as="geometry">
            <mxRectangle width="279" height="45" as="alternateBounds" />
          </mxGeometry>
        </mxCell>
        <mxCell id="x0yfb88HtxfDjiXEh2D_-37" value="" style="shape=partialRectangle;connectable=0;fillColor=none;top=0;left=0;bottom=0;right=0;align=left;spacingLeft=2;overflow=hidden;fontSize=11;" vertex="1" parent="x0yfb88HtxfDjiXEh2D_-34">
          <mxGeometry x="333" width="22" height="45" as="geometry">
            <mxRectangle width="22" height="45" as="alternateBounds" />
          </mxGeometry>
        </mxCell>
        <mxCell id="x0yfb88HtxfDjiXEh2D_-38" value="UNIQUE, NOT NULL" style="shape=partialRectangle;connectable=0;fillColor=none;top=0;left=0;bottom=0;right=0;align=left;spacingLeft=2;overflow=hidden;fontSize=11;" vertex="1" parent="x0yfb88HtxfDjiXEh2D_-34">
          <mxGeometry x="355" width="168" height="45" as="geometry">
            <mxRectangle width="168" height="45" as="alternateBounds" />
          </mxGeometry>
        </mxCell>
        <mxCell id="x0yfb88HtxfDjiXEh2D_-39" style="shape=tableRow;horizontal=0;startSize=0;swimlaneHead=0;swimlaneBody=0;fillColor=none;collapsible=0;dropTarget=0;points=[[0,0.5],[1,0.5]];portConstraint=eastwest;top=0;left=0;right=0;bottom=0;" vertex="1" parent="x0yfb88HtxfDjiXEh2D_-18">
          <mxGeometry y="205" width="523" height="45" as="geometry" />
        </mxCell>
        <mxCell id="x0yfb88HtxfDjiXEh2D_-40" value="VARCHAR" style="shape=partialRectangle;connectable=0;fillColor=none;top=0;left=0;bottom=0;right=0;align=left;spacingLeft=2;overflow=hidden;fontSize=11;" vertex="1" parent="x0yfb88HtxfDjiXEh2D_-39">
          <mxGeometry width="54" height="45" as="geometry">
            <mxRectangle width="54" height="45" as="alternateBounds" />
          </mxGeometry>
        </mxCell>
        <mxCell id="x0yfb88HtxfDjiXEh2D_-41" value="password_hash" style="shape=partialRectangle;connectable=0;fillColor=none;top=0;left=0;bottom=0;right=0;align=left;spacingLeft=2;overflow=hidden;fontSize=11;" vertex="1" parent="x0yfb88HtxfDjiXEh2D_-39">
          <mxGeometry x="54" width="279" height="45" as="geometry">
            <mxRectangle width="279" height="45" as="alternateBounds" />
          </mxGeometry>
        </mxCell>
        <mxCell id="x0yfb88HtxfDjiXEh2D_-42" value="" style="shape=partialRectangle;connectable=0;fillColor=none;top=0;left=0;bottom=0;right=0;align=left;spacingLeft=2;overflow=hidden;fontSize=11;" vertex="1" parent="x0yfb88HtxfDjiXEh2D_-39">
          <mxGeometry x="333" width="22" height="45" as="geometry">
            <mxRectangle width="22" height="45" as="alternateBounds" />
          </mxGeometry>
        </mxCell>
        <mxCell id="x0yfb88HtxfDjiXEh2D_-43" value="NOT NULL" style="shape=partialRectangle;connectable=0;fillColor=none;top=0;left=0;bottom=0;right=0;align=left;spacingLeft=2;overflow=hidden;fontSize=11;" vertex="1" parent="x0yfb88HtxfDjiXEh2D_-39">
          <mxGeometry x="355" width="168" height="45" as="geometry">
            <mxRectangle width="168" height="45" as="alternateBounds" />
          </mxGeometry>
        </mxCell>
        <mxCell id="x0yfb88HtxfDjiXEh2D_-44" style="shape=tableRow;horizontal=0;startSize=0;swimlaneHead=0;swimlaneBody=0;fillColor=none;collapsible=0;dropTarget=0;points=[[0,0.5],[1,0.5]];portConstraint=eastwest;top=0;left=0;right=0;bottom=0;" vertex="1" parent="x0yfb88HtxfDjiXEh2D_-18">
          <mxGeometry y="250" width="523" height="45" as="geometry" />
        </mxCell>
        <mxCell id="x0yfb88HtxfDjiXEh2D_-45" value="VARCHAR" style="shape=partialRectangle;connectable=0;fillColor=none;top=0;left=0;bottom=0;right=0;align=left;spacingLeft=2;overflow=hidden;fontSize=11;" vertex="1" parent="x0yfb88HtxfDjiXEh2D_-44">
          <mxGeometry width="54" height="45" as="geometry">
            <mxRectangle width="54" height="45" as="alternateBounds" />
          </mxGeometry>
        </mxCell>
        <mxCell id="x0yfb88HtxfDjiXEh2D_-46" value="phone_number" style="shape=partialRectangle;connectable=0;fillColor=none;top=0;left=0;bottom=0;right=0;align=left;spacingLeft=2;overflow=hidden;fontSize=11;" vertex="1" parent="x0yfb88HtxfDjiXEh2D_-44">
          <mxGeometry x="54" width="279" height="45" as="geometry">
            <mxRectangle width="279" height="45" as="alternateBounds" />
          </mxGeometry>
        </mxCell>
        <mxCell id="x0yfb88HtxfDjiXEh2D_-47" value="" style="shape=partialRectangle;connectable=0;fillColor=none;top=0;left=0;bottom=0;right=0;align=left;spacingLeft=2;overflow=hidden;fontSize=11;" vertex="1" parent="x0yfb88HtxfDjiXEh2D_-44">
          <mxGeometry x="333" width="22" height="45" as="geometry">
            <mxRectangle width="22" height="45" as="alternateBounds" />
          </mxGeometry>
        </mxCell>
        <mxCell id="x0yfb88HtxfDjiXEh2D_-48" value="NULL" style="shape=partialRectangle;connectable=0;fillColor=none;top=0;left=0;bottom=0;right=0;align=left;spacingLeft=2;overflow=hidden;fontSize=11;" vertex="1" parent="x0yfb88HtxfDjiXEh2D_-44">
          <mxGeometry x="355" width="168" height="45" as="geometry">
            <mxRectangle width="168" height="45" as="alternateBounds" />
          </mxGeometry>
        </mxCell>
        <mxCell id="x0yfb88HtxfDjiXEh2D_-49" style="shape=tableRow;horizontal=0;startSize=0;swimlaneHead=0;swimlaneBody=0;fillColor=none;collapsible=0;dropTarget=0;points=[[0,0.5],[1,0.5]];portConstraint=eastwest;top=0;left=0;right=0;bottom=0;" vertex="1" parent="x0yfb88HtxfDjiXEh2D_-18">
          <mxGeometry y="295" width="523" height="45" as="geometry" />
        </mxCell>
        <mxCell id="x0yfb88HtxfDjiXEh2D_-50" value="ENUM" style="shape=partialRectangle;connectable=0;fillColor=none;top=0;left=0;bottom=0;right=0;align=left;spacingLeft=2;overflow=hidden;fontSize=11;" vertex="1" parent="x0yfb88HtxfDjiXEh2D_-49">
          <mxGeometry width="54" height="45" as="geometry">
            <mxRectangle width="54" height="45" as="alternateBounds" />
          </mxGeometry>
        </mxCell>
        <mxCell id="x0yfb88HtxfDjiXEh2D_-51" value="role" style="shape=partialRectangle;connectable=0;fillColor=none;top=0;left=0;bottom=0;right=0;align=left;spacingLeft=2;overflow=hidden;fontSize=11;" vertex="1" parent="x0yfb88HtxfDjiXEh2D_-49">
          <mxGeometry x="54" width="279" height="45" as="geometry">
            <mxRectangle width="279" height="45" as="alternateBounds" />
          </mxGeometry>
        </mxCell>
        <mxCell id="x0yfb88HtxfDjiXEh2D_-52" value="" style="shape=partialRectangle;connectable=0;fillColor=none;top=0;left=0;bottom=0;right=0;align=left;spacingLeft=2;overflow=hidden;fontSize=11;" vertex="1" parent="x0yfb88HtxfDjiXEh2D_-49">
          <mxGeometry x="333" width="22" height="45" as="geometry">
            <mxRectangle width="22" height="45" as="alternateBounds" />
          </mxGeometry>
        </mxCell>
        <mxCell id="x0yfb88HtxfDjiXEh2D_-53" value="guest, host, admin, NOT NULL" style="shape=partialRectangle;connectable=0;fillColor=none;top=0;left=0;bottom=0;right=0;align=left;spacingLeft=2;overflow=hidden;fontSize=11;" vertex="1" parent="x0yfb88HtxfDjiXEh2D_-49">
          <mxGeometry x="355" width="168" height="45" as="geometry">
            <mxRectangle width="168" height="45" as="alternateBounds" />
          </mxGeometry>
        </mxCell>
        <mxCell id="x0yfb88HtxfDjiXEh2D_-54" style="shape=tableRow;horizontal=0;startSize=0;swimlaneHead=0;swimlaneBody=0;fillColor=none;collapsible=0;dropTarget=0;points=[[0,0.5],[1,0.5]];portConstraint=eastwest;top=0;left=0;right=0;bottom=0;" vertex="1" parent="x0yfb88HtxfDjiXEh2D_-18">
          <mxGeometry y="340" width="523" height="45" as="geometry" />
        </mxCell>
        <mxCell id="x0yfb88HtxfDjiXEh2D_-55" value="TIMESTAMP" style="shape=partialRectangle;connectable=0;fillColor=none;top=0;left=0;bottom=0;right=0;align=left;spacingLeft=2;overflow=hidden;fontSize=11;" vertex="1" parent="x0yfb88HtxfDjiXEh2D_-54">
          <mxGeometry width="54" height="45" as="geometry">
            <mxRectangle width="54" height="45" as="alternateBounds" />
          </mxGeometry>
        </mxCell>
        <mxCell id="x0yfb88HtxfDjiXEh2D_-56" value="created_at" style="shape=partialRectangle;connectable=0;fillColor=none;top=0;left=0;bottom=0;right=0;align=left;spacingLeft=2;overflow=hidden;fontSize=11;" vertex="1" parent="x0yfb88HtxfDjiXEh2D_-54">
          <mxGeometry x="54" width="279" height="45" as="geometry">
            <mxRectangle width="279" height="45" as="alternateBounds" />
          </mxGeometry>
        </mxCell>
        <mxCell id="x0yfb88HtxfDjiXEh2D_-57" value="" style="shape=partialRectangle;connectable=0;fillColor=none;top=0;left=0;bottom=0;right=0;align=left;spacingLeft=2;overflow=hidden;fontSize=11;" vertex="1" parent="x0yfb88HtxfDjiXEh2D_-54">
          <mxGeometry x="333" width="22" height="45" as="geometry">
            <mxRectangle width="22" height="45" as="alternateBounds" />
          </mxGeometry>
        </mxCell>
        <mxCell id="x0yfb88HtxfDjiXEh2D_-58" value="DEFAULT CURRENT_TIMESTAMP" style="shape=partialRectangle;connectable=0;fillColor=none;top=0;left=0;bottom=0;right=0;align=left;spacingLeft=2;overflow=hidden;fontSize=11;" vertex="1" parent="x0yfb88HtxfDjiXEh2D_-54">
          <mxGeometry x="355" width="168" height="45" as="geometry">
            <mxRectangle width="168" height="45" as="alternateBounds" />
          </mxGeometry>
        </mxCell>
        <mxCell id="x0yfb88HtxfDjiXEh2D_-59" value="PROPERTY" style="shape=table;startSize=25;container=1;collapsible=0;childLayout=tableLayout;fixedRows=1;rowLines=1;fontStyle=1;align=center;resizeLast=1;" vertex="1" parent="1">
          <mxGeometry x="784" y="527" width="533" height="385" as="geometry" />
        </mxCell>
        <mxCell id="x0yfb88HtxfDjiXEh2D_-60" style="shape=tableRow;horizontal=0;startSize=0;swimlaneHead=0;swimlaneBody=0;fillColor=none;collapsible=0;dropTarget=0;points=[[0,0.5],[1,0.5]];portConstraint=eastwest;top=0;left=0;right=0;bottom=0;" vertex="1" parent="x0yfb88HtxfDjiXEh2D_-59">
          <mxGeometry y="25" width="533" height="45" as="geometry" />
        </mxCell>
        <mxCell id="x0yfb88HtxfDjiXEh2D_-61" value="UUID" style="shape=partialRectangle;connectable=0;fillColor=none;top=0;left=0;bottom=0;right=0;align=left;spacingLeft=2;overflow=hidden;fontSize=11;" vertex="1" parent="x0yfb88HtxfDjiXEh2D_-60">
          <mxGeometry width="54" height="45" as="geometry">
            <mxRectangle width="54" height="45" as="alternateBounds" />
          </mxGeometry>
        </mxCell>
        <mxCell id="x0yfb88HtxfDjiXEh2D_-62" value="property_id" style="shape=partialRectangle;connectable=0;fillColor=none;top=0;left=0;bottom=0;right=0;align=left;spacingLeft=2;overflow=hidden;fontSize=11;" vertex="1" parent="x0yfb88HtxfDjiXEh2D_-60">
          <mxGeometry x="54" width="289" height="45" as="geometry">
            <mxRectangle width="289" height="45" as="alternateBounds" />
          </mxGeometry>
        </mxCell>
        <mxCell id="x0yfb88HtxfDjiXEh2D_-63" value="PK" style="shape=partialRectangle;connectable=0;fillColor=none;top=0;left=0;bottom=0;right=0;align=left;spacingLeft=2;overflow=hidden;fontSize=11;" vertex="1" parent="x0yfb88HtxfDjiXEh2D_-60">
          <mxGeometry x="343" width="22" height="45" as="geometry">
            <mxRectangle width="22" height="45" as="alternateBounds" />
          </mxGeometry>
        </mxCell>
        <mxCell id="x0yfb88HtxfDjiXEh2D_-64" value="Primary Key, Indexed" style="shape=partialRectangle;connectable=0;fillColor=none;top=0;left=0;bottom=0;right=0;align=left;spacingLeft=2;overflow=hidden;fontSize=11;" vertex="1" parent="x0yfb88HtxfDjiXEh2D_-60">
          <mxGeometry x="365" width="168" height="45" as="geometry">
            <mxRectangle width="168" height="45" as="alternateBounds" />
          </mxGeometry>
        </mxCell>
        <mxCell id="x0yfb88HtxfDjiXEh2D_-65" style="shape=tableRow;horizontal=0;startSize=0;swimlaneHead=0;swimlaneBody=0;fillColor=none;collapsible=0;dropTarget=0;points=[[0,0.5],[1,0.5]];portConstraint=eastwest;top=0;left=0;right=0;bottom=0;" vertex="1" parent="x0yfb88HtxfDjiXEh2D_-59">
          <mxGeometry y="70" width="533" height="45" as="geometry" />
        </mxCell>
        <mxCell id="x0yfb88HtxfDjiXEh2D_-66" value="UUID" style="shape=partialRectangle;connectable=0;fillColor=none;top=0;left=0;bottom=0;right=0;align=left;spacingLeft=2;overflow=hidden;fontSize=11;" vertex="1" parent="x0yfb88HtxfDjiXEh2D_-65">
          <mxGeometry width="54" height="45" as="geometry">
            <mxRectangle width="54" height="45" as="alternateBounds" />
          </mxGeometry>
        </mxCell>
        <mxCell id="x0yfb88HtxfDjiXEh2D_-67" value="host_id" style="shape=partialRectangle;connectable=0;fillColor=none;top=0;left=0;bottom=0;right=0;align=left;spacingLeft=2;overflow=hidden;fontSize=11;" vertex="1" parent="x0yfb88HtxfDjiXEh2D_-65">
          <mxGeometry x="54" width="289" height="45" as="geometry">
            <mxRectangle width="289" height="45" as="alternateBounds" />
          </mxGeometry>
        </mxCell>
        <mxCell id="x0yfb88HtxfDjiXEh2D_-68" value="FK" style="shape=partialRectangle;connectable=0;fillColor=none;top=0;left=0;bottom=0;right=0;align=left;spacingLeft=2;overflow=hidden;fontSize=11;" vertex="1" parent="x0yfb88HtxfDjiXEh2D_-65">
          <mxGeometry x="343" width="22" height="45" as="geometry">
            <mxRectangle width="22" height="45" as="alternateBounds" />
          </mxGeometry>
        </mxCell>
        <mxCell id="x0yfb88HtxfDjiXEh2D_-69" value="Foreign Key to USER(user_id)" style="shape=partialRectangle;connectable=0;fillColor=none;top=0;left=0;bottom=0;right=0;align=left;spacingLeft=2;overflow=hidden;fontSize=11;" vertex="1" parent="x0yfb88HtxfDjiXEh2D_-65">
          <mxGeometry x="365" width="168" height="45" as="geometry">
            <mxRectangle width="168" height="45" as="alternateBounds" />
          </mxGeometry>
        </mxCell>
        <mxCell id="x0yfb88HtxfDjiXEh2D_-70" style="shape=tableRow;horizontal=0;startSize=0;swimlaneHead=0;swimlaneBody=0;fillColor=none;collapsible=0;dropTarget=0;points=[[0,0.5],[1,0.5]];portConstraint=eastwest;top=0;left=0;right=0;bottom=0;" vertex="1" parent="x0yfb88HtxfDjiXEh2D_-59">
          <mxGeometry y="115" width="533" height="45" as="geometry" />
        </mxCell>
        <mxCell id="x0yfb88HtxfDjiXEh2D_-71" value="VARCHAR" style="shape=partialRectangle;connectable=0;fillColor=none;top=0;left=0;bottom=0;right=0;align=left;spacingLeft=2;overflow=hidden;fontSize=11;" vertex="1" parent="x0yfb88HtxfDjiXEh2D_-70">
          <mxGeometry width="54" height="45" as="geometry">
            <mxRectangle width="54" height="45" as="alternateBounds" />
          </mxGeometry>
        </mxCell>
        <mxCell id="x0yfb88HtxfDjiXEh2D_-72" value="name" style="shape=partialRectangle;connectable=0;fillColor=none;top=0;left=0;bottom=0;right=0;align=left;spacingLeft=2;overflow=hidden;fontSize=11;" vertex="1" parent="x0yfb88HtxfDjiXEh2D_-70">
          <mxGeometry x="54" width="289" height="45" as="geometry">
            <mxRectangle width="289" height="45" as="alternateBounds" />
          </mxGeometry>
        </mxCell>
        <mxCell id="x0yfb88HtxfDjiXEh2D_-73" value="" style="shape=partialRectangle;connectable=0;fillColor=none;top=0;left=0;bottom=0;right=0;align=left;spacingLeft=2;overflow=hidden;fontSize=11;" vertex="1" parent="x0yfb88HtxfDjiXEh2D_-70">
          <mxGeometry x="343" width="22" height="45" as="geometry">
            <mxRectangle width="22" height="45" as="alternateBounds" />
          </mxGeometry>
        </mxCell>
        <mxCell id="x0yfb88HtxfDjiXEh2D_-74" value="NOT NULL" style="shape=partialRectangle;connectable=0;fillColor=none;top=0;left=0;bottom=0;right=0;align=left;spacingLeft=2;overflow=hidden;fontSize=11;" vertex="1" parent="x0yfb88HtxfDjiXEh2D_-70">
          <mxGeometry x="365" width="168" height="45" as="geometry">
            <mxRectangle width="168" height="45" as="alternateBounds" />
          </mxGeometry>
        </mxCell>
        <mxCell id="x0yfb88HtxfDjiXEh2D_-75" style="shape=tableRow;horizontal=0;startSize=0;swimlaneHead=0;swimlaneBody=0;fillColor=none;collapsible=0;dropTarget=0;points=[[0,0.5],[1,0.5]];portConstraint=eastwest;top=0;left=0;right=0;bottom=0;" vertex="1" parent="x0yfb88HtxfDjiXEh2D_-59">
          <mxGeometry y="160" width="533" height="45" as="geometry" />
        </mxCell>
        <mxCell id="x0yfb88HtxfDjiXEh2D_-76" value="TEXT" style="shape=partialRectangle;connectable=0;fillColor=none;top=0;left=0;bottom=0;right=0;align=left;spacingLeft=2;overflow=hidden;fontSize=11;" vertex="1" parent="x0yfb88HtxfDjiXEh2D_-75">
          <mxGeometry width="54" height="45" as="geometry">
            <mxRectangle width="54" height="45" as="alternateBounds" />
          </mxGeometry>
        </mxCell>
        <mxCell id="x0yfb88HtxfDjiXEh2D_-77" value="description" style="shape=partialRectangle;connectable=0;fillColor=none;top=0;left=0;bottom=0;right=0;align=left;spacingLeft=2;overflow=hidden;fontSize=11;" vertex="1" parent="x0yfb88HtxfDjiXEh2D_-75">
          <mxGeometry x="54" width="289" height="45" as="geometry">
            <mxRectangle width="289" height="45" as="alternateBounds" />
          </mxGeometry>
        </mxCell>
        <mxCell id="x0yfb88HtxfDjiXEh2D_-78" value="" style="shape=partialRectangle;connectable=0;fillColor=none;top=0;left=0;bottom=0;right=0;align=left;spacingLeft=2;overflow=hidden;fontSize=11;" vertex="1" parent="x0yfb88HtxfDjiXEh2D_-75">
          <mxGeometry x="343" width="22" height="45" as="geometry">
            <mxRectangle width="22" height="45" as="alternateBounds" />
          </mxGeometry>
        </mxCell>
        <mxCell id="x0yfb88HtxfDjiXEh2D_-79" value="NOT NULL" style="shape=partialRectangle;connectable=0;fillColor=none;top=0;left=0;bottom=0;right=0;align=left;spacingLeft=2;overflow=hidden;fontSize=11;" vertex="1" parent="x0yfb88HtxfDjiXEh2D_-75">
          <mxGeometry x="365" width="168" height="45" as="geometry">
            <mxRectangle width="168" height="45" as="alternateBounds" />
          </mxGeometry>
        </mxCell>
        <mxCell id="x0yfb88HtxfDjiXEh2D_-80" style="shape=tableRow;horizontal=0;startSize=0;swimlaneHead=0;swimlaneBody=0;fillColor=none;collapsible=0;dropTarget=0;points=[[0,0.5],[1,0.5]];portConstraint=eastwest;top=0;left=0;right=0;bottom=0;" vertex="1" parent="x0yfb88HtxfDjiXEh2D_-59">
          <mxGeometry y="205" width="533" height="45" as="geometry" />
        </mxCell>
        <mxCell id="x0yfb88HtxfDjiXEh2D_-81" value="VARCHAR" style="shape=partialRectangle;connectable=0;fillColor=none;top=0;left=0;bottom=0;right=0;align=left;spacingLeft=2;overflow=hidden;fontSize=11;" vertex="1" parent="x0yfb88HtxfDjiXEh2D_-80">
          <mxGeometry width="54" height="45" as="geometry">
            <mxRectangle width="54" height="45" as="alternateBounds" />
          </mxGeometry>
        </mxCell>
        <mxCell id="x0yfb88HtxfDjiXEh2D_-82" value="location" style="shape=partialRectangle;connectable=0;fillColor=none;top=0;left=0;bottom=0;right=0;align=left;spacingLeft=2;overflow=hidden;fontSize=11;" vertex="1" parent="x0yfb88HtxfDjiXEh2D_-80">
          <mxGeometry x="54" width="289" height="45" as="geometry">
            <mxRectangle width="289" height="45" as="alternateBounds" />
          </mxGeometry>
        </mxCell>
        <mxCell id="x0yfb88HtxfDjiXEh2D_-83" value="" style="shape=partialRectangle;connectable=0;fillColor=none;top=0;left=0;bottom=0;right=0;align=left;spacingLeft=2;overflow=hidden;fontSize=11;" vertex="1" parent="x0yfb88HtxfDjiXEh2D_-80">
          <mxGeometry x="343" width="22" height="45" as="geometry">
            <mxRectangle width="22" height="45" as="alternateBounds" />
          </mxGeometry>
        </mxCell>
        <mxCell id="x0yfb88HtxfDjiXEh2D_-84" value="NOT NULL" style="shape=partialRectangle;connectable=0;fillColor=none;top=0;left=0;bottom=0;right=0;align=left;spacingLeft=2;overflow=hidden;fontSize=11;" vertex="1" parent="x0yfb88HtxfDjiXEh2D_-80">
          <mxGeometry x="365" width="168" height="45" as="geometry">
            <mxRectangle width="168" height="45" as="alternateBounds" />
          </mxGeometry>
        </mxCell>
        <mxCell id="x0yfb88HtxfDjiXEh2D_-85" style="shape=tableRow;horizontal=0;startSize=0;swimlaneHead=0;swimlaneBody=0;fillColor=none;collapsible=0;dropTarget=0;points=[[0,0.5],[1,0.5]];portConstraint=eastwest;top=0;left=0;right=0;bottom=0;" vertex="1" parent="x0yfb88HtxfDjiXEh2D_-59">
          <mxGeometry y="250" width="533" height="45" as="geometry" />
        </mxCell>
        <mxCell id="x0yfb88HtxfDjiXEh2D_-86" value="DECIMAL" style="shape=partialRectangle;connectable=0;fillColor=none;top=0;left=0;bottom=0;right=0;align=left;spacingLeft=2;overflow=hidden;fontSize=11;" vertex="1" parent="x0yfb88HtxfDjiXEh2D_-85">
          <mxGeometry width="54" height="45" as="geometry">
            <mxRectangle width="54" height="45" as="alternateBounds" />
          </mxGeometry>
        </mxCell>
        <mxCell id="x0yfb88HtxfDjiXEh2D_-87" value="pricepernight" style="shape=partialRectangle;connectable=0;fillColor=none;top=0;left=0;bottom=0;right=0;align=left;spacingLeft=2;overflow=hidden;fontSize=11;" vertex="1" parent="x0yfb88HtxfDjiXEh2D_-85">
          <mxGeometry x="54" width="289" height="45" as="geometry">
            <mxRectangle width="289" height="45" as="alternateBounds" />
          </mxGeometry>
        </mxCell>
        <mxCell id="x0yfb88HtxfDjiXEh2D_-88" value="" style="shape=partialRectangle;connectable=0;fillColor=none;top=0;left=0;bottom=0;right=0;align=left;spacingLeft=2;overflow=hidden;fontSize=11;" vertex="1" parent="x0yfb88HtxfDjiXEh2D_-85">
          <mxGeometry x="343" width="22" height="45" as="geometry">
            <mxRectangle width="22" height="45" as="alternateBounds" />
          </mxGeometry>
        </mxCell>
        <mxCell id="x0yfb88HtxfDjiXEh2D_-89" value="NOT NULL" style="shape=partialRectangle;connectable=0;fillColor=none;top=0;left=0;bottom=0;right=0;align=left;spacingLeft=2;overflow=hidden;fontSize=11;" vertex="1" parent="x0yfb88HtxfDjiXEh2D_-85">
          <mxGeometry x="365" width="168" height="45" as="geometry">
            <mxRectangle width="168" height="45" as="alternateBounds" />
          </mxGeometry>
        </mxCell>
        <mxCell id="x0yfb88HtxfDjiXEh2D_-90" style="shape=tableRow;horizontal=0;startSize=0;swimlaneHead=0;swimlaneBody=0;fillColor=none;collapsible=0;dropTarget=0;points=[[0,0.5],[1,0.5]];portConstraint=eastwest;top=0;left=0;right=0;bottom=0;" vertex="1" parent="x0yfb88HtxfDjiXEh2D_-59">
          <mxGeometry y="295" width="533" height="45" as="geometry" />
        </mxCell>
        <mxCell id="x0yfb88HtxfDjiXEh2D_-91" value="TIMESTAMP" style="shape=partialRectangle;connectable=0;fillColor=none;top=0;left=0;bottom=0;right=0;align=left;spacingLeft=2;overflow=hidden;fontSize=11;" vertex="1" parent="x0yfb88HtxfDjiXEh2D_-90">
          <mxGeometry width="54" height="45" as="geometry">
            <mxRectangle width="54" height="45" as="alternateBounds" />
          </mxGeometry>
        </mxCell>
        <mxCell id="x0yfb88HtxfDjiXEh2D_-92" value="created_at" style="shape=partialRectangle;connectable=0;fillColor=none;top=0;left=0;bottom=0;right=0;align=left;spacingLeft=2;overflow=hidden;fontSize=11;" vertex="1" parent="x0yfb88HtxfDjiXEh2D_-90">
          <mxGeometry x="54" width="289" height="45" as="geometry">
            <mxRectangle width="289" height="45" as="alternateBounds" />
          </mxGeometry>
        </mxCell>
        <mxCell id="x0yfb88HtxfDjiXEh2D_-93" value="" style="shape=partialRectangle;connectable=0;fillColor=none;top=0;left=0;bottom=0;right=0;align=left;spacingLeft=2;overflow=hidden;fontSize=11;" vertex="1" parent="x0yfb88HtxfDjiXEh2D_-90">
          <mxGeometry x="343" width="22" height="45" as="geometry">
            <mxRectangle width="22" height="45" as="alternateBounds" />
          </mxGeometry>
        </mxCell>
        <mxCell id="x0yfb88HtxfDjiXEh2D_-94" value="DEFAULT CURRENT_TIMESTAMP" style="shape=partialRectangle;connectable=0;fillColor=none;top=0;left=0;bottom=0;right=0;align=left;spacingLeft=2;overflow=hidden;fontSize=11;" vertex="1" parent="x0yfb88HtxfDjiXEh2D_-90">
          <mxGeometry x="365" width="168" height="45" as="geometry">
            <mxRectangle width="168" height="45" as="alternateBounds" />
          </mxGeometry>
        </mxCell>
        <mxCell id="x0yfb88HtxfDjiXEh2D_-95" style="shape=tableRow;horizontal=0;startSize=0;swimlaneHead=0;swimlaneBody=0;fillColor=none;collapsible=0;dropTarget=0;points=[[0,0.5],[1,0.5]];portConstraint=eastwest;top=0;left=0;right=0;bottom=0;" vertex="1" parent="x0yfb88HtxfDjiXEh2D_-59">
          <mxGeometry y="340" width="533" height="45" as="geometry" />
        </mxCell>
        <mxCell id="x0yfb88HtxfDjiXEh2D_-96" value="TIMESTAMP" style="shape=partialRectangle;connectable=0;fillColor=none;top=0;left=0;bottom=0;right=0;align=left;spacingLeft=2;overflow=hidden;fontSize=11;" vertex="1" parent="x0yfb88HtxfDjiXEh2D_-95">
          <mxGeometry width="54" height="45" as="geometry">
            <mxRectangle width="54" height="45" as="alternateBounds" />
          </mxGeometry>
        </mxCell>
        <mxCell id="x0yfb88HtxfDjiXEh2D_-97" value="updated_at" style="shape=partialRectangle;connectable=0;fillColor=none;top=0;left=0;bottom=0;right=0;align=left;spacingLeft=2;overflow=hidden;fontSize=11;" vertex="1" parent="x0yfb88HtxfDjiXEh2D_-95">
          <mxGeometry x="54" width="289" height="45" as="geometry">
            <mxRectangle width="289" height="45" as="alternateBounds" />
          </mxGeometry>
        </mxCell>
        <mxCell id="x0yfb88HtxfDjiXEh2D_-98" value="" style="shape=partialRectangle;connectable=0;fillColor=none;top=0;left=0;bottom=0;right=0;align=left;spacingLeft=2;overflow=hidden;fontSize=11;" vertex="1" parent="x0yfb88HtxfDjiXEh2D_-95">
          <mxGeometry x="343" width="22" height="45" as="geometry">
            <mxRectangle width="22" height="45" as="alternateBounds" />
          </mxGeometry>
        </mxCell>
        <mxCell id="x0yfb88HtxfDjiXEh2D_-99" value="ON UPDATE CURRENT_TIMESTAMP" style="shape=partialRectangle;connectable=0;fillColor=none;top=0;left=0;bottom=0;right=0;align=left;spacingLeft=2;overflow=hidden;fontSize=11;" vertex="1" parent="x0yfb88HtxfDjiXEh2D_-95">
          <mxGeometry x="365" width="168" height="45" as="geometry">
            <mxRectangle width="168" height="45" as="alternateBounds" />
          </mxGeometry>
        </mxCell>
        <mxCell id="x0yfb88HtxfDjiXEh2D_-100" value="BOOKING" style="shape=table;startSize=25;container=1;collapsible=0;childLayout=tableLayout;fixedRows=1;rowLines=1;fontStyle=1;align=center;resizeLast=1;" vertex="1" parent="1">
          <mxGeometry x="246" y="1015" width="578" height="385" as="geometry" />
        </mxCell>
        <mxCell id="x0yfb88HtxfDjiXEh2D_-101" style="shape=tableRow;horizontal=0;startSize=0;swimlaneHead=0;swimlaneBody=0;fillColor=none;collapsible=0;dropTarget=0;points=[[0,0.5],[1,0.5]];portConstraint=eastwest;top=0;left=0;right=0;bottom=0;" vertex="1" parent="x0yfb88HtxfDjiXEh2D_-100">
          <mxGeometry y="25" width="578" height="45" as="geometry" />
        </mxCell>
        <mxCell id="x0yfb88HtxfDjiXEh2D_-102" value="UUID" style="shape=partialRectangle;connectable=0;fillColor=none;top=0;left=0;bottom=0;right=0;align=left;spacingLeft=2;overflow=hidden;fontSize=11;" vertex="1" parent="x0yfb88HtxfDjiXEh2D_-101">
          <mxGeometry width="54" height="45" as="geometry">
            <mxRectangle width="54" height="45" as="alternateBounds" />
          </mxGeometry>
        </mxCell>
        <mxCell id="x0yfb88HtxfDjiXEh2D_-103" value="booking_id" style="shape=partialRectangle;connectable=0;fillColor=none;top=0;left=0;bottom=0;right=0;align=left;spacingLeft=2;overflow=hidden;fontSize=11;" vertex="1" parent="x0yfb88HtxfDjiXEh2D_-101">
          <mxGeometry x="54" width="274" height="45" as="geometry">
            <mxRectangle width="274" height="45" as="alternateBounds" />
          </mxGeometry>
        </mxCell>
        <mxCell id="x0yfb88HtxfDjiXEh2D_-104" value="PK" style="shape=partialRectangle;connectable=0;fillColor=none;top=0;left=0;bottom=0;right=0;align=left;spacingLeft=2;overflow=hidden;fontSize=11;" vertex="1" parent="x0yfb88HtxfDjiXEh2D_-101">
          <mxGeometry x="328" width="22" height="45" as="geometry">
            <mxRectangle width="22" height="45" as="alternateBounds" />
          </mxGeometry>
        </mxCell>
        <mxCell id="x0yfb88HtxfDjiXEh2D_-105" value="Primary Key, Indexed" style="shape=partialRectangle;connectable=0;fillColor=none;top=0;left=0;bottom=0;right=0;align=left;spacingLeft=2;overflow=hidden;fontSize=11;" vertex="1" parent="x0yfb88HtxfDjiXEh2D_-101">
          <mxGeometry x="350" width="228" height="45" as="geometry">
            <mxRectangle width="228" height="45" as="alternateBounds" />
          </mxGeometry>
        </mxCell>
        <mxCell id="x0yfb88HtxfDjiXEh2D_-106" style="shape=tableRow;horizontal=0;startSize=0;swimlaneHead=0;swimlaneBody=0;fillColor=none;collapsible=0;dropTarget=0;points=[[0,0.5],[1,0.5]];portConstraint=eastwest;top=0;left=0;right=0;bottom=0;" vertex="1" parent="x0yfb88HtxfDjiXEh2D_-100">
          <mxGeometry y="70" width="578" height="45" as="geometry" />
        </mxCell>
        <mxCell id="x0yfb88HtxfDjiXEh2D_-107" value="UUID" style="shape=partialRectangle;connectable=0;fillColor=none;top=0;left=0;bottom=0;right=0;align=left;spacingLeft=2;overflow=hidden;fontSize=11;" vertex="1" parent="x0yfb88HtxfDjiXEh2D_-106">
          <mxGeometry width="54" height="45" as="geometry">
            <mxRectangle width="54" height="45" as="alternateBounds" />
          </mxGeometry>
        </mxCell>
        <mxCell id="x0yfb88HtxfDjiXEh2D_-108" value="property_id" style="shape=partialRectangle;connectable=0;fillColor=none;top=0;left=0;bottom=0;right=0;align=left;spacingLeft=2;overflow=hidden;fontSize=11;" vertex="1" parent="x0yfb88HtxfDjiXEh2D_-106">
          <mxGeometry x="54" width="274" height="45" as="geometry">
            <mxRectangle width="274" height="45" as="alternateBounds" />
          </mxGeometry>
        </mxCell>
        <mxCell id="x0yfb88HtxfDjiXEh2D_-109" value="FK" style="shape=partialRectangle;connectable=0;fillColor=none;top=0;left=0;bottom=0;right=0;align=left;spacingLeft=2;overflow=hidden;fontSize=11;" vertex="1" parent="x0yfb88HtxfDjiXEh2D_-106">
          <mxGeometry x="328" width="22" height="45" as="geometry">
            <mxRectangle width="22" height="45" as="alternateBounds" />
          </mxGeometry>
        </mxCell>
        <mxCell id="x0yfb88HtxfDjiXEh2D_-110" value="Foreign Key to PROPERTY(property_id)" style="shape=partialRectangle;connectable=0;fillColor=none;top=0;left=0;bottom=0;right=0;align=left;spacingLeft=2;overflow=hidden;fontSize=11;" vertex="1" parent="x0yfb88HtxfDjiXEh2D_-106">
          <mxGeometry x="350" width="228" height="45" as="geometry">
            <mxRectangle width="228" height="45" as="alternateBounds" />
          </mxGeometry>
        </mxCell>
        <mxCell id="x0yfb88HtxfDjiXEh2D_-111" style="shape=tableRow;horizontal=0;startSize=0;swimlaneHead=0;swimlaneBody=0;fillColor=none;collapsible=0;dropTarget=0;points=[[0,0.5],[1,0.5]];portConstraint=eastwest;top=0;left=0;right=0;bottom=0;" vertex="1" parent="x0yfb88HtxfDjiXEh2D_-100">
          <mxGeometry y="115" width="578" height="45" as="geometry" />
        </mxCell>
        <mxCell id="x0yfb88HtxfDjiXEh2D_-112" value="UUID" style="shape=partialRectangle;connectable=0;fillColor=none;top=0;left=0;bottom=0;right=0;align=left;spacingLeft=2;overflow=hidden;fontSize=11;" vertex="1" parent="x0yfb88HtxfDjiXEh2D_-111">
          <mxGeometry width="54" height="45" as="geometry">
            <mxRectangle width="54" height="45" as="alternateBounds" />
          </mxGeometry>
        </mxCell>
        <mxCell id="x0yfb88HtxfDjiXEh2D_-113" value="user_id" style="shape=partialRectangle;connectable=0;fillColor=none;top=0;left=0;bottom=0;right=0;align=left;spacingLeft=2;overflow=hidden;fontSize=11;" vertex="1" parent="x0yfb88HtxfDjiXEh2D_-111">
          <mxGeometry x="54" width="274" height="45" as="geometry">
            <mxRectangle width="274" height="45" as="alternateBounds" />
          </mxGeometry>
        </mxCell>
        <mxCell id="x0yfb88HtxfDjiXEh2D_-114" value="FK" style="shape=partialRectangle;connectable=0;fillColor=none;top=0;left=0;bottom=0;right=0;align=left;spacingLeft=2;overflow=hidden;fontSize=11;" vertex="1" parent="x0yfb88HtxfDjiXEh2D_-111">
          <mxGeometry x="328" width="22" height="45" as="geometry">
            <mxRectangle width="22" height="45" as="alternateBounds" />
          </mxGeometry>
        </mxCell>
        <mxCell id="x0yfb88HtxfDjiXEh2D_-115" value="Foreign Key to USER(user_id)" style="shape=partialRectangle;connectable=0;fillColor=none;top=0;left=0;bottom=0;right=0;align=left;spacingLeft=2;overflow=hidden;fontSize=11;" vertex="1" parent="x0yfb88HtxfDjiXEh2D_-111">
          <mxGeometry x="350" width="228" height="45" as="geometry">
            <mxRectangle width="228" height="45" as="alternateBounds" />
          </mxGeometry>
        </mxCell>
        <mxCell id="x0yfb88HtxfDjiXEh2D_-116" style="shape=tableRow;horizontal=0;startSize=0;swimlaneHead=0;swimlaneBody=0;fillColor=none;collapsible=0;dropTarget=0;points=[[0,0.5],[1,0.5]];portConstraint=eastwest;top=0;left=0;right=0;bottom=0;" vertex="1" parent="x0yfb88HtxfDjiXEh2D_-100">
          <mxGeometry y="160" width="578" height="45" as="geometry" />
        </mxCell>
        <mxCell id="x0yfb88HtxfDjiXEh2D_-117" value="DATE" style="shape=partialRectangle;connectable=0;fillColor=none;top=0;left=0;bottom=0;right=0;align=left;spacingLeft=2;overflow=hidden;fontSize=11;" vertex="1" parent="x0yfb88HtxfDjiXEh2D_-116">
          <mxGeometry width="54" height="45" as="geometry">
            <mxRectangle width="54" height="45" as="alternateBounds" />
          </mxGeometry>
        </mxCell>
        <mxCell id="x0yfb88HtxfDjiXEh2D_-118" value="start_date" style="shape=partialRectangle;connectable=0;fillColor=none;top=0;left=0;bottom=0;right=0;align=left;spacingLeft=2;overflow=hidden;fontSize=11;" vertex="1" parent="x0yfb88HtxfDjiXEh2D_-116">
          <mxGeometry x="54" width="274" height="45" as="geometry">
            <mxRectangle width="274" height="45" as="alternateBounds" />
          </mxGeometry>
        </mxCell>
        <mxCell id="x0yfb88HtxfDjiXEh2D_-119" value="" style="shape=partialRectangle;connectable=0;fillColor=none;top=0;left=0;bottom=0;right=0;align=left;spacingLeft=2;overflow=hidden;fontSize=11;" vertex="1" parent="x0yfb88HtxfDjiXEh2D_-116">
          <mxGeometry x="328" width="22" height="45" as="geometry">
            <mxRectangle width="22" height="45" as="alternateBounds" />
          </mxGeometry>
        </mxCell>
        <mxCell id="x0yfb88HtxfDjiXEh2D_-120" value="NOT NULL" style="shape=partialRectangle;connectable=0;fillColor=none;top=0;left=0;bottom=0;right=0;align=left;spacingLeft=2;overflow=hidden;fontSize=11;" vertex="1" parent="x0yfb88HtxfDjiXEh2D_-116">
          <mxGeometry x="350" width="228" height="45" as="geometry">
            <mxRectangle width="228" height="45" as="alternateBounds" />
          </mxGeometry>
        </mxCell>
        <mxCell id="x0yfb88HtxfDjiXEh2D_-121" style="shape=tableRow;horizontal=0;startSize=0;swimlaneHead=0;swimlaneBody=0;fillColor=none;collapsible=0;dropTarget=0;points=[[0,0.5],[1,0.5]];portConstraint=eastwest;top=0;left=0;right=0;bottom=0;" vertex="1" parent="x0yfb88HtxfDjiXEh2D_-100">
          <mxGeometry y="205" width="578" height="45" as="geometry" />
        </mxCell>
        <mxCell id="x0yfb88HtxfDjiXEh2D_-122" value="DATE" style="shape=partialRectangle;connectable=0;fillColor=none;top=0;left=0;bottom=0;right=0;align=left;spacingLeft=2;overflow=hidden;fontSize=11;" vertex="1" parent="x0yfb88HtxfDjiXEh2D_-121">
          <mxGeometry width="54" height="45" as="geometry">
            <mxRectangle width="54" height="45" as="alternateBounds" />
          </mxGeometry>
        </mxCell>
        <mxCell id="x0yfb88HtxfDjiXEh2D_-123" value="end_date" style="shape=partialRectangle;connectable=0;fillColor=none;top=0;left=0;bottom=0;right=0;align=left;spacingLeft=2;overflow=hidden;fontSize=11;" vertex="1" parent="x0yfb88HtxfDjiXEh2D_-121">
          <mxGeometry x="54" width="274" height="45" as="geometry">
            <mxRectangle width="274" height="45" as="alternateBounds" />
          </mxGeometry>
        </mxCell>
        <mxCell id="x0yfb88HtxfDjiXEh2D_-124" value="" style="shape=partialRectangle;connectable=0;fillColor=none;top=0;left=0;bottom=0;right=0;align=left;spacingLeft=2;overflow=hidden;fontSize=11;" vertex="1" parent="x0yfb88HtxfDjiXEh2D_-121">
          <mxGeometry x="328" width="22" height="45" as="geometry">
            <mxRectangle width="22" height="45" as="alternateBounds" />
          </mxGeometry>
        </mxCell>
        <mxCell id="x0yfb88HtxfDjiXEh2D_-125" value="NOT NULL" style="shape=partialRectangle;connectable=0;fillColor=none;top=0;left=0;bottom=0;right=0;align=left;spacingLeft=2;overflow=hidden;fontSize=11;" vertex="1" parent="x0yfb88HtxfDjiXEh2D_-121">
          <mxGeometry x="350" width="228" height="45" as="geometry">
            <mxRectangle width="228" height="45" as="alternateBounds" />
          </mxGeometry>
        </mxCell>
        <mxCell id="x0yfb88HtxfDjiXEh2D_-126" style="shape=tableRow;horizontal=0;startSize=0;swimlaneHead=0;swimlaneBody=0;fillColor=none;collapsible=0;dropTarget=0;points=[[0,0.5],[1,0.5]];portConstraint=eastwest;top=0;left=0;right=0;bottom=0;" vertex="1" parent="x0yfb88HtxfDjiXEh2D_-100">
          <mxGeometry y="250" width="578" height="45" as="geometry" />
        </mxCell>
        <mxCell id="x0yfb88HtxfDjiXEh2D_-127" value="DECIMAL" style="shape=partialRectangle;connectable=0;fillColor=none;top=0;left=0;bottom=0;right=0;align=left;spacingLeft=2;overflow=hidden;fontSize=11;" vertex="1" parent="x0yfb88HtxfDjiXEh2D_-126">
          <mxGeometry width="54" height="45" as="geometry">
            <mxRectangle width="54" height="45" as="alternateBounds" />
          </mxGeometry>
        </mxCell>
        <mxCell id="x0yfb88HtxfDjiXEh2D_-128" value="total_price" style="shape=partialRectangle;connectable=0;fillColor=none;top=0;left=0;bottom=0;right=0;align=left;spacingLeft=2;overflow=hidden;fontSize=11;" vertex="1" parent="x0yfb88HtxfDjiXEh2D_-126">
          <mxGeometry x="54" width="274" height="45" as="geometry">
            <mxRectangle width="274" height="45" as="alternateBounds" />
          </mxGeometry>
        </mxCell>
        <mxCell id="x0yfb88HtxfDjiXEh2D_-129" value="" style="shape=partialRectangle;connectable=0;fillColor=none;top=0;left=0;bottom=0;right=0;align=left;spacingLeft=2;overflow=hidden;fontSize=11;" vertex="1" parent="x0yfb88HtxfDjiXEh2D_-126">
          <mxGeometry x="328" width="22" height="45" as="geometry">
            <mxRectangle width="22" height="45" as="alternateBounds" />
          </mxGeometry>
        </mxCell>
        <mxCell id="x0yfb88HtxfDjiXEh2D_-130" value="NOT NULL" style="shape=partialRectangle;connectable=0;fillColor=none;top=0;left=0;bottom=0;right=0;align=left;spacingLeft=2;overflow=hidden;fontSize=11;" vertex="1" parent="x0yfb88HtxfDjiXEh2D_-126">
          <mxGeometry x="350" width="228" height="45" as="geometry">
            <mxRectangle width="228" height="45" as="alternateBounds" />
          </mxGeometry>
        </mxCell>
        <mxCell id="x0yfb88HtxfDjiXEh2D_-131" style="shape=tableRow;horizontal=0;startSize=0;swimlaneHead=0;swimlaneBody=0;fillColor=none;collapsible=0;dropTarget=0;points=[[0,0.5],[1,0.5]];portConstraint=eastwest;top=0;left=0;right=0;bottom=0;" vertex="1" parent="x0yfb88HtxfDjiXEh2D_-100">
          <mxGeometry y="295" width="578" height="45" as="geometry" />
        </mxCell>
        <mxCell id="x0yfb88HtxfDjiXEh2D_-132" value="ENUM" style="shape=partialRectangle;connectable=0;fillColor=none;top=0;left=0;bottom=0;right=0;align=left;spacingLeft=2;overflow=hidden;fontSize=11;" vertex="1" parent="x0yfb88HtxfDjiXEh2D_-131">
          <mxGeometry width="54" height="45" as="geometry">
            <mxRectangle width="54" height="45" as="alternateBounds" />
          </mxGeometry>
        </mxCell>
        <mxCell id="x0yfb88HtxfDjiXEh2D_-133" value="status" style="shape=partialRectangle;connectable=0;fillColor=none;top=0;left=0;bottom=0;right=0;align=left;spacingLeft=2;overflow=hidden;fontSize=11;" vertex="1" parent="x0yfb88HtxfDjiXEh2D_-131">
          <mxGeometry x="54" width="274" height="45" as="geometry">
            <mxRectangle width="274" height="45" as="alternateBounds" />
          </mxGeometry>
        </mxCell>
        <mxCell id="x0yfb88HtxfDjiXEh2D_-134" value="" style="shape=partialRectangle;connectable=0;fillColor=none;top=0;left=0;bottom=0;right=0;align=left;spacingLeft=2;overflow=hidden;fontSize=11;" vertex="1" parent="x0yfb88HtxfDjiXEh2D_-131">
          <mxGeometry x="328" width="22" height="45" as="geometry">
            <mxRectangle width="22" height="45" as="alternateBounds" />
          </mxGeometry>
        </mxCell>
        <mxCell id="x0yfb88HtxfDjiXEh2D_-135" value="pending, confirmed, canceled, NOT NULL" style="shape=partialRectangle;connectable=0;fillColor=none;top=0;left=0;bottom=0;right=0;align=left;spacingLeft=2;overflow=hidden;fontSize=11;" vertex="1" parent="x0yfb88HtxfDjiXEh2D_-131">
          <mxGeometry x="350" width="228" height="45" as="geometry">
            <mxRectangle width="228" height="45" as="alternateBounds" />
          </mxGeometry>
        </mxCell>
        <mxCell id="x0yfb88HtxfDjiXEh2D_-136" style="shape=tableRow;horizontal=0;startSize=0;swimlaneHead=0;swimlaneBody=0;fillColor=none;collapsible=0;dropTarget=0;points=[[0,0.5],[1,0.5]];portConstraint=eastwest;top=0;left=0;right=0;bottom=0;" vertex="1" parent="x0yfb88HtxfDjiXEh2D_-100">
          <mxGeometry y="340" width="578" height="45" as="geometry" />
        </mxCell>
        <mxCell id="x0yfb88HtxfDjiXEh2D_-137" value="TIMESTAMP" style="shape=partialRectangle;connectable=0;fillColor=none;top=0;left=0;bottom=0;right=0;align=left;spacingLeft=2;overflow=hidden;fontSize=11;" vertex="1" parent="x0yfb88HtxfDjiXEh2D_-136">
          <mxGeometry width="54" height="45" as="geometry">
            <mxRectangle width="54" height="45" as="alternateBounds" />
          </mxGeometry>
        </mxCell>
        <mxCell id="x0yfb88HtxfDjiXEh2D_-138" value="created_at" style="shape=partialRectangle;connectable=0;fillColor=none;top=0;left=0;bottom=0;right=0;align=left;spacingLeft=2;overflow=hidden;fontSize=11;" vertex="1" parent="x0yfb88HtxfDjiXEh2D_-136">
          <mxGeometry x="54" width="274" height="45" as="geometry">
            <mxRectangle width="274" height="45" as="alternateBounds" />
          </mxGeometry>
        </mxCell>
        <mxCell id="x0yfb88HtxfDjiXEh2D_-139" value="" style="shape=partialRectangle;connectable=0;fillColor=none;top=0;left=0;bottom=0;right=0;align=left;spacingLeft=2;overflow=hidden;fontSize=11;" vertex="1" parent="x0yfb88HtxfDjiXEh2D_-136">
          <mxGeometry x="328" width="22" height="45" as="geometry">
            <mxRectangle width="22" height="45" as="alternateBounds" />
          </mxGeometry>
        </mxCell>
        <mxCell id="x0yfb88HtxfDjiXEh2D_-140" value="DEFAULT CURRENT_TIMESTAMP" style="shape=partialRectangle;connectable=0;fillColor=none;top=0;left=0;bottom=0;right=0;align=left;spacingLeft=2;overflow=hidden;fontSize=11;" vertex="1" parent="x0yfb88HtxfDjiXEh2D_-136">
          <mxGeometry x="350" width="228" height="45" as="geometry">
            <mxRectangle width="228" height="45" as="alternateBounds" />
          </mxGeometry>
        </mxCell>
        <mxCell id="x0yfb88HtxfDjiXEh2D_-141" value="PAYMENT" style="shape=table;startSize=25;container=1;collapsible=0;childLayout=tableLayout;fixedRows=1;rowLines=1;fontStyle=1;align=center;resizeLast=1;" vertex="1" parent="1">
          <mxGeometry x="237" y="1502" width="597" height="256" as="geometry" />
        </mxCell>
        <mxCell id="x0yfb88HtxfDjiXEh2D_-142" style="shape=tableRow;horizontal=0;startSize=0;swimlaneHead=0;swimlaneBody=0;fillColor=none;collapsible=0;dropTarget=0;points=[[0,0.5],[1,0.5]];portConstraint=eastwest;top=0;left=0;right=0;bottom=0;" vertex="1" parent="x0yfb88HtxfDjiXEh2D_-141">
          <mxGeometry y="25" width="597" height="46" as="geometry" />
        </mxCell>
        <mxCell id="x0yfb88HtxfDjiXEh2D_-143" value="UUID" style="shape=partialRectangle;connectable=0;fillColor=none;top=0;left=0;bottom=0;right=0;align=left;spacingLeft=2;overflow=hidden;fontSize=11;" vertex="1" parent="x0yfb88HtxfDjiXEh2D_-142">
          <mxGeometry width="54" height="46" as="geometry">
            <mxRectangle width="54" height="46" as="alternateBounds" />
          </mxGeometry>
        </mxCell>
        <mxCell id="x0yfb88HtxfDjiXEh2D_-144" value="payment_id" style="shape=partialRectangle;connectable=0;fillColor=none;top=0;left=0;bottom=0;right=0;align=left;spacingLeft=2;overflow=hidden;fontSize=11;" vertex="1" parent="x0yfb88HtxfDjiXEh2D_-142">
          <mxGeometry x="54" width="299" height="46" as="geometry">
            <mxRectangle width="299" height="46" as="alternateBounds" />
          </mxGeometry>
        </mxCell>
        <mxCell id="x0yfb88HtxfDjiXEh2D_-145" value="PK" style="shape=partialRectangle;connectable=0;fillColor=none;top=0;left=0;bottom=0;right=0;align=left;spacingLeft=2;overflow=hidden;fontSize=11;" vertex="1" parent="x0yfb88HtxfDjiXEh2D_-142">
          <mxGeometry x="353" width="22" height="46" as="geometry">
            <mxRectangle width="22" height="46" as="alternateBounds" />
          </mxGeometry>
        </mxCell>
        <mxCell id="x0yfb88HtxfDjiXEh2D_-146" value="Primary Key, Indexed" style="shape=partialRectangle;connectable=0;fillColor=none;top=0;left=0;bottom=0;right=0;align=left;spacingLeft=2;overflow=hidden;fontSize=11;" vertex="1" parent="x0yfb88HtxfDjiXEh2D_-142">
          <mxGeometry x="375" width="222" height="46" as="geometry">
            <mxRectangle width="222" height="46" as="alternateBounds" />
          </mxGeometry>
        </mxCell>
        <mxCell id="x0yfb88HtxfDjiXEh2D_-147" style="shape=tableRow;horizontal=0;startSize=0;swimlaneHead=0;swimlaneBody=0;fillColor=none;collapsible=0;dropTarget=0;points=[[0,0.5],[1,0.5]];portConstraint=eastwest;top=0;left=0;right=0;bottom=0;" vertex="1" parent="x0yfb88HtxfDjiXEh2D_-141">
          <mxGeometry y="71" width="597" height="46" as="geometry" />
        </mxCell>
        <mxCell id="x0yfb88HtxfDjiXEh2D_-148" value="UUID" style="shape=partialRectangle;connectable=0;fillColor=none;top=0;left=0;bottom=0;right=0;align=left;spacingLeft=2;overflow=hidden;fontSize=11;" vertex="1" parent="x0yfb88HtxfDjiXEh2D_-147">
          <mxGeometry width="54" height="46" as="geometry">
            <mxRectangle width="54" height="46" as="alternateBounds" />
          </mxGeometry>
        </mxCell>
        <mxCell id="x0yfb88HtxfDjiXEh2D_-149" value="booking_id" style="shape=partialRectangle;connectable=0;fillColor=none;top=0;left=0;bottom=0;right=0;align=left;spacingLeft=2;overflow=hidden;fontSize=11;" vertex="1" parent="x0yfb88HtxfDjiXEh2D_-147">
          <mxGeometry x="54" width="299" height="46" as="geometry">
            <mxRectangle width="299" height="46" as="alternateBounds" />
          </mxGeometry>
        </mxCell>
        <mxCell id="x0yfb88HtxfDjiXEh2D_-150" value="FK" style="shape=partialRectangle;connectable=0;fillColor=none;top=0;left=0;bottom=0;right=0;align=left;spacingLeft=2;overflow=hidden;fontSize=11;" vertex="1" parent="x0yfb88HtxfDjiXEh2D_-147">
          <mxGeometry x="353" width="22" height="46" as="geometry">
            <mxRectangle width="22" height="46" as="alternateBounds" />
          </mxGeometry>
        </mxCell>
        <mxCell id="x0yfb88HtxfDjiXEh2D_-151" value="Foreign Key to BOOKING(booking_id)" style="shape=partialRectangle;connectable=0;fillColor=none;top=0;left=0;bottom=0;right=0;align=left;spacingLeft=2;overflow=hidden;fontSize=11;" vertex="1" parent="x0yfb88HtxfDjiXEh2D_-147">
          <mxGeometry x="375" width="222" height="46" as="geometry">
            <mxRectangle width="222" height="46" as="alternateBounds" />
          </mxGeometry>
        </mxCell>
        <mxCell id="x0yfb88HtxfDjiXEh2D_-152" style="shape=tableRow;horizontal=0;startSize=0;swimlaneHead=0;swimlaneBody=0;fillColor=none;collapsible=0;dropTarget=0;points=[[0,0.5],[1,0.5]];portConstraint=eastwest;top=0;left=0;right=0;bottom=0;" vertex="1" parent="x0yfb88HtxfDjiXEh2D_-141">
          <mxGeometry y="117" width="597" height="46" as="geometry" />
        </mxCell>
        <mxCell id="x0yfb88HtxfDjiXEh2D_-153" value="DECIMAL" style="shape=partialRectangle;connectable=0;fillColor=none;top=0;left=0;bottom=0;right=0;align=left;spacingLeft=2;overflow=hidden;fontSize=11;" vertex="1" parent="x0yfb88HtxfDjiXEh2D_-152">
          <mxGeometry width="54" height="46" as="geometry">
            <mxRectangle width="54" height="46" as="alternateBounds" />
          </mxGeometry>
        </mxCell>
        <mxCell id="x0yfb88HtxfDjiXEh2D_-154" value="amount" style="shape=partialRectangle;connectable=0;fillColor=none;top=0;left=0;bottom=0;right=0;align=left;spacingLeft=2;overflow=hidden;fontSize=11;" vertex="1" parent="x0yfb88HtxfDjiXEh2D_-152">
          <mxGeometry x="54" width="299" height="46" as="geometry">
            <mxRectangle width="299" height="46" as="alternateBounds" />
          </mxGeometry>
        </mxCell>
        <mxCell id="x0yfb88HtxfDjiXEh2D_-155" value="" style="shape=partialRectangle;connectable=0;fillColor=none;top=0;left=0;bottom=0;right=0;align=left;spacingLeft=2;overflow=hidden;fontSize=11;" vertex="1" parent="x0yfb88HtxfDjiXEh2D_-152">
          <mxGeometry x="353" width="22" height="46" as="geometry">
            <mxRectangle width="22" height="46" as="alternateBounds" />
          </mxGeometry>
        </mxCell>
        <mxCell id="x0yfb88HtxfDjiXEh2D_-156" value="NOT NULL" style="shape=partialRectangle;connectable=0;fillColor=none;top=0;left=0;bottom=0;right=0;align=left;spacingLeft=2;overflow=hidden;fontSize=11;" vertex="1" parent="x0yfb88HtxfDjiXEh2D_-152">
          <mxGeometry x="375" width="222" height="46" as="geometry">
            <mxRectangle width="222" height="46" as="alternateBounds" />
          </mxGeometry>
        </mxCell>
        <mxCell id="x0yfb88HtxfDjiXEh2D_-157" style="shape=tableRow;horizontal=0;startSize=0;swimlaneHead=0;swimlaneBody=0;fillColor=none;collapsible=0;dropTarget=0;points=[[0,0.5],[1,0.5]];portConstraint=eastwest;top=0;left=0;right=0;bottom=0;" vertex="1" parent="x0yfb88HtxfDjiXEh2D_-141">
          <mxGeometry y="163" width="597" height="46" as="geometry" />
        </mxCell>
        <mxCell id="x0yfb88HtxfDjiXEh2D_-158" value="TIMESTAMP" style="shape=partialRectangle;connectable=0;fillColor=none;top=0;left=0;bottom=0;right=0;align=left;spacingLeft=2;overflow=hidden;fontSize=11;" vertex="1" parent="x0yfb88HtxfDjiXEh2D_-157">
          <mxGeometry width="54" height="46" as="geometry">
            <mxRectangle width="54" height="46" as="alternateBounds" />
          </mxGeometry>
        </mxCell>
        <mxCell id="x0yfb88HtxfDjiXEh2D_-159" value="payment_date" style="shape=partialRectangle;connectable=0;fillColor=none;top=0;left=0;bottom=0;right=0;align=left;spacingLeft=2;overflow=hidden;fontSize=11;" vertex="1" parent="x0yfb88HtxfDjiXEh2D_-157">
          <mxGeometry x="54" width="299" height="46" as="geometry">
            <mxRectangle width="299" height="46" as="alternateBounds" />
          </mxGeometry>
        </mxCell>
        <mxCell id="x0yfb88HtxfDjiXEh2D_-160" value="" style="shape=partialRectangle;connectable=0;fillColor=none;top=0;left=0;bottom=0;right=0;align=left;spacingLeft=2;overflow=hidden;fontSize=11;" vertex="1" parent="x0yfb88HtxfDjiXEh2D_-157">
          <mxGeometry x="353" width="22" height="46" as="geometry">
            <mxRectangle width="22" height="46" as="alternateBounds" />
          </mxGeometry>
        </mxCell>
        <mxCell id="x0yfb88HtxfDjiXEh2D_-161" value="DEFAULT CURRENT_TIMESTAMP" style="shape=partialRectangle;connectable=0;fillColor=none;top=0;left=0;bottom=0;right=0;align=left;spacingLeft=2;overflow=hidden;fontSize=11;" vertex="1" parent="x0yfb88HtxfDjiXEh2D_-157">
          <mxGeometry x="375" width="222" height="46" as="geometry">
            <mxRectangle width="222" height="46" as="alternateBounds" />
          </mxGeometry>
        </mxCell>
        <mxCell id="x0yfb88HtxfDjiXEh2D_-162" style="shape=tableRow;horizontal=0;startSize=0;swimlaneHead=0;swimlaneBody=0;fillColor=none;collapsible=0;dropTarget=0;points=[[0,0.5],[1,0.5]];portConstraint=eastwest;top=0;left=0;right=0;bottom=0;" vertex="1" parent="x0yfb88HtxfDjiXEh2D_-141">
          <mxGeometry y="209" width="597" height="46" as="geometry" />
        </mxCell>
        <mxCell id="x0yfb88HtxfDjiXEh2D_-163" value="ENUM" style="shape=partialRectangle;connectable=0;fillColor=none;top=0;left=0;bottom=0;right=0;align=left;spacingLeft=2;overflow=hidden;fontSize=11;" vertex="1" parent="x0yfb88HtxfDjiXEh2D_-162">
          <mxGeometry width="54" height="46" as="geometry">
            <mxRectangle width="54" height="46" as="alternateBounds" />
          </mxGeometry>
        </mxCell>
        <mxCell id="x0yfb88HtxfDjiXEh2D_-164" value="payment_method" style="shape=partialRectangle;connectable=0;fillColor=none;top=0;left=0;bottom=0;right=0;align=left;spacingLeft=2;overflow=hidden;fontSize=11;" vertex="1" parent="x0yfb88HtxfDjiXEh2D_-162">
          <mxGeometry x="54" width="299" height="46" as="geometry">
            <mxRectangle width="299" height="46" as="alternateBounds" />
          </mxGeometry>
        </mxCell>
        <mxCell id="x0yfb88HtxfDjiXEh2D_-165" value="" style="shape=partialRectangle;connectable=0;fillColor=none;top=0;left=0;bottom=0;right=0;align=left;spacingLeft=2;overflow=hidden;fontSize=11;" vertex="1" parent="x0yfb88HtxfDjiXEh2D_-162">
          <mxGeometry x="353" width="22" height="46" as="geometry">
            <mxRectangle width="22" height="46" as="alternateBounds" />
          </mxGeometry>
        </mxCell>
        <mxCell id="x0yfb88HtxfDjiXEh2D_-166" value="credit_card, paypal, stripe, NOT NULL" style="shape=partialRectangle;connectable=0;fillColor=none;top=0;left=0;bottom=0;right=0;align=left;spacingLeft=2;overflow=hidden;fontSize=11;" vertex="1" parent="x0yfb88HtxfDjiXEh2D_-162">
          <mxGeometry x="375" width="222" height="46" as="geometry">
            <mxRectangle width="222" height="46" as="alternateBounds" />
          </mxGeometry>
        </mxCell>
        <mxCell id="x0yfb88HtxfDjiXEh2D_-167" value="REVIEW" style="shape=table;startSize=25;container=1;collapsible=0;childLayout=tableLayout;fixedRows=1;rowLines=1;fontStyle=1;align=center;resizeLast=1;" vertex="1" parent="1">
          <mxGeometry x="1311" y="1058" width="558" height="301" as="geometry" />
        </mxCell>
        <mxCell id="x0yfb88HtxfDjiXEh2D_-168" style="shape=tableRow;horizontal=0;startSize=0;swimlaneHead=0;swimlaneBody=0;fillColor=none;collapsible=0;dropTarget=0;points=[[0,0.5],[1,0.5]];portConstraint=eastwest;top=0;left=0;right=0;bottom=0;" vertex="1" parent="x0yfb88HtxfDjiXEh2D_-167">
          <mxGeometry y="25" width="558" height="46" as="geometry" />
        </mxCell>
        <mxCell id="x0yfb88HtxfDjiXEh2D_-169" value="UUID" style="shape=partialRectangle;connectable=0;fillColor=none;top=0;left=0;bottom=0;right=0;align=left;spacingLeft=2;overflow=hidden;fontSize=11;" vertex="1" parent="x0yfb88HtxfDjiXEh2D_-168">
          <mxGeometry width="54" height="46" as="geometry">
            <mxRectangle width="54" height="46" as="alternateBounds" />
          </mxGeometry>
        </mxCell>
        <mxCell id="x0yfb88HtxfDjiXEh2D_-170" value="review_id" style="shape=partialRectangle;connectable=0;fillColor=none;top=0;left=0;bottom=0;right=0;align=left;spacingLeft=2;overflow=hidden;fontSize=11;" vertex="1" parent="x0yfb88HtxfDjiXEh2D_-168">
          <mxGeometry x="54" width="266" height="46" as="geometry">
            <mxRectangle width="266" height="46" as="alternateBounds" />
          </mxGeometry>
        </mxCell>
        <mxCell id="x0yfb88HtxfDjiXEh2D_-171" value="PK" style="shape=partialRectangle;connectable=0;fillColor=none;top=0;left=0;bottom=0;right=0;align=left;spacingLeft=2;overflow=hidden;fontSize=11;" vertex="1" parent="x0yfb88HtxfDjiXEh2D_-168">
          <mxGeometry x="320" width="22" height="46" as="geometry">
            <mxRectangle width="22" height="46" as="alternateBounds" />
          </mxGeometry>
        </mxCell>
        <mxCell id="x0yfb88HtxfDjiXEh2D_-172" value="Primary Key, Indexed" style="shape=partialRectangle;connectable=0;fillColor=none;top=0;left=0;bottom=0;right=0;align=left;spacingLeft=2;overflow=hidden;fontSize=11;" vertex="1" parent="x0yfb88HtxfDjiXEh2D_-168">
          <mxGeometry x="342" width="216" height="46" as="geometry">
            <mxRectangle width="216" height="46" as="alternateBounds" />
          </mxGeometry>
        </mxCell>
        <mxCell id="x0yfb88HtxfDjiXEh2D_-173" style="shape=tableRow;horizontal=0;startSize=0;swimlaneHead=0;swimlaneBody=0;fillColor=none;collapsible=0;dropTarget=0;points=[[0,0.5],[1,0.5]];portConstraint=eastwest;top=0;left=0;right=0;bottom=0;" vertex="1" parent="x0yfb88HtxfDjiXEh2D_-167">
          <mxGeometry y="71" width="558" height="46" as="geometry" />
        </mxCell>
        <mxCell id="x0yfb88HtxfDjiXEh2D_-174" value="UUID" style="shape=partialRectangle;connectable=0;fillColor=none;top=0;left=0;bottom=0;right=0;align=left;spacingLeft=2;overflow=hidden;fontSize=11;" vertex="1" parent="x0yfb88HtxfDjiXEh2D_-173">
          <mxGeometry width="54" height="46" as="geometry">
            <mxRectangle width="54" height="46" as="alternateBounds" />
          </mxGeometry>
        </mxCell>
        <mxCell id="x0yfb88HtxfDjiXEh2D_-175" value="property_id" style="shape=partialRectangle;connectable=0;fillColor=none;top=0;left=0;bottom=0;right=0;align=left;spacingLeft=2;overflow=hidden;fontSize=11;" vertex="1" parent="x0yfb88HtxfDjiXEh2D_-173">
          <mxGeometry x="54" width="266" height="46" as="geometry">
            <mxRectangle width="266" height="46" as="alternateBounds" />
          </mxGeometry>
        </mxCell>
        <mxCell id="x0yfb88HtxfDjiXEh2D_-176" value="FK" style="shape=partialRectangle;connectable=0;fillColor=none;top=0;left=0;bottom=0;right=0;align=left;spacingLeft=2;overflow=hidden;fontSize=11;" vertex="1" parent="x0yfb88HtxfDjiXEh2D_-173">
          <mxGeometry x="320" width="22" height="46" as="geometry">
            <mxRectangle width="22" height="46" as="alternateBounds" />
          </mxGeometry>
        </mxCell>
        <mxCell id="x0yfb88HtxfDjiXEh2D_-177" value="Foreign Key to PROPERTY(property_id)" style="shape=partialRectangle;connectable=0;fillColor=none;top=0;left=0;bottom=0;right=0;align=left;spacingLeft=2;overflow=hidden;fontSize=11;" vertex="1" parent="x0yfb88HtxfDjiXEh2D_-173">
          <mxGeometry x="342" width="216" height="46" as="geometry">
            <mxRectangle width="216" height="46" as="alternateBounds" />
          </mxGeometry>
        </mxCell>
        <mxCell id="x0yfb88HtxfDjiXEh2D_-178" style="shape=tableRow;horizontal=0;startSize=0;swimlaneHead=0;swimlaneBody=0;fillColor=none;collapsible=0;dropTarget=0;points=[[0,0.5],[1,0.5]];portConstraint=eastwest;top=0;left=0;right=0;bottom=0;" vertex="1" parent="x0yfb88HtxfDjiXEh2D_-167">
          <mxGeometry y="117" width="558" height="46" as="geometry" />
        </mxCell>
        <mxCell id="x0yfb88HtxfDjiXEh2D_-179" value="UUID" style="shape=partialRectangle;connectable=0;fillColor=none;top=0;left=0;bottom=0;right=0;align=left;spacingLeft=2;overflow=hidden;fontSize=11;" vertex="1" parent="x0yfb88HtxfDjiXEh2D_-178">
          <mxGeometry width="54" height="46" as="geometry">
            <mxRectangle width="54" height="46" as="alternateBounds" />
          </mxGeometry>
        </mxCell>
        <mxCell id="x0yfb88HtxfDjiXEh2D_-180" value="user_id" style="shape=partialRectangle;connectable=0;fillColor=none;top=0;left=0;bottom=0;right=0;align=left;spacingLeft=2;overflow=hidden;fontSize=11;" vertex="1" parent="x0yfb88HtxfDjiXEh2D_-178">
          <mxGeometry x="54" width="266" height="46" as="geometry">
            <mxRectangle width="266" height="46" as="alternateBounds" />
          </mxGeometry>
        </mxCell>
        <mxCell id="x0yfb88HtxfDjiXEh2D_-181" value="FK" style="shape=partialRectangle;connectable=0;fillColor=none;top=0;left=0;bottom=0;right=0;align=left;spacingLeft=2;overflow=hidden;fontSize=11;" vertex="1" parent="x0yfb88HtxfDjiXEh2D_-178">
          <mxGeometry x="320" width="22" height="46" as="geometry">
            <mxRectangle width="22" height="46" as="alternateBounds" />
          </mxGeometry>
        </mxCell>
        <mxCell id="x0yfb88HtxfDjiXEh2D_-182" value="Foreign Key to USER(user_id)" style="shape=partialRectangle;connectable=0;fillColor=none;top=0;left=0;bottom=0;right=0;align=left;spacingLeft=2;overflow=hidden;fontSize=11;" vertex="1" parent="x0yfb88HtxfDjiXEh2D_-178">
          <mxGeometry x="342" width="216" height="46" as="geometry">
            <mxRectangle width="216" height="46" as="alternateBounds" />
          </mxGeometry>
        </mxCell>
        <mxCell id="x0yfb88HtxfDjiXEh2D_-183" style="shape=tableRow;horizontal=0;startSize=0;swimlaneHead=0;swimlaneBody=0;fillColor=none;collapsible=0;dropTarget=0;points=[[0,0.5],[1,0.5]];portConstraint=eastwest;top=0;left=0;right=0;bottom=0;" vertex="1" parent="x0yfb88HtxfDjiXEh2D_-167">
          <mxGeometry y="163" width="558" height="46" as="geometry" />
        </mxCell>
        <mxCell id="x0yfb88HtxfDjiXEh2D_-184" value="INTEGER" style="shape=partialRectangle;connectable=0;fillColor=none;top=0;left=0;bottom=0;right=0;align=left;spacingLeft=2;overflow=hidden;fontSize=11;" vertex="1" parent="x0yfb88HtxfDjiXEh2D_-183">
          <mxGeometry width="54" height="46" as="geometry">
            <mxRectangle width="54" height="46" as="alternateBounds" />
          </mxGeometry>
        </mxCell>
        <mxCell id="x0yfb88HtxfDjiXEh2D_-185" value="rating" style="shape=partialRectangle;connectable=0;fillColor=none;top=0;left=0;bottom=0;right=0;align=left;spacingLeft=2;overflow=hidden;fontSize=11;" vertex="1" parent="x0yfb88HtxfDjiXEh2D_-183">
          <mxGeometry x="54" width="266" height="46" as="geometry">
            <mxRectangle width="266" height="46" as="alternateBounds" />
          </mxGeometry>
        </mxCell>
        <mxCell id="x0yfb88HtxfDjiXEh2D_-186" value="" style="shape=partialRectangle;connectable=0;fillColor=none;top=0;left=0;bottom=0;right=0;align=left;spacingLeft=2;overflow=hidden;fontSize=11;" vertex="1" parent="x0yfb88HtxfDjiXEh2D_-183">
          <mxGeometry x="320" width="22" height="46" as="geometry">
            <mxRectangle width="22" height="46" as="alternateBounds" />
          </mxGeometry>
        </mxCell>
        <mxCell id="x0yfb88HtxfDjiXEh2D_-187" value="1-5, NOT NULL" style="shape=partialRectangle;connectable=0;fillColor=none;top=0;left=0;bottom=0;right=0;align=left;spacingLeft=2;overflow=hidden;fontSize=11;" vertex="1" parent="x0yfb88HtxfDjiXEh2D_-183">
          <mxGeometry x="342" width="216" height="46" as="geometry">
            <mxRectangle width="216" height="46" as="alternateBounds" />
          </mxGeometry>
        </mxCell>
        <mxCell id="x0yfb88HtxfDjiXEh2D_-188" style="shape=tableRow;horizontal=0;startSize=0;swimlaneHead=0;swimlaneBody=0;fillColor=none;collapsible=0;dropTarget=0;points=[[0,0.5],[1,0.5]];portConstraint=eastwest;top=0;left=0;right=0;bottom=0;" vertex="1" parent="x0yfb88HtxfDjiXEh2D_-167">
          <mxGeometry y="209" width="558" height="46" as="geometry" />
        </mxCell>
        <mxCell id="x0yfb88HtxfDjiXEh2D_-189" value="TEXT" style="shape=partialRectangle;connectable=0;fillColor=none;top=0;left=0;bottom=0;right=0;align=left;spacingLeft=2;overflow=hidden;fontSize=11;" vertex="1" parent="x0yfb88HtxfDjiXEh2D_-188">
          <mxGeometry width="54" height="46" as="geometry">
            <mxRectangle width="54" height="46" as="alternateBounds" />
          </mxGeometry>
        </mxCell>
        <mxCell id="x0yfb88HtxfDjiXEh2D_-190" value="comment" style="shape=partialRectangle;connectable=0;fillColor=none;top=0;left=0;bottom=0;right=0;align=left;spacingLeft=2;overflow=hidden;fontSize=11;" vertex="1" parent="x0yfb88HtxfDjiXEh2D_-188">
          <mxGeometry x="54" width="266" height="46" as="geometry">
            <mxRectangle width="266" height="46" as="alternateBounds" />
          </mxGeometry>
        </mxCell>
        <mxCell id="x0yfb88HtxfDjiXEh2D_-191" value="" style="shape=partialRectangle;connectable=0;fillColor=none;top=0;left=0;bottom=0;right=0;align=left;spacingLeft=2;overflow=hidden;fontSize=11;" vertex="1" parent="x0yfb88HtxfDjiXEh2D_-188">
          <mxGeometry x="320" width="22" height="46" as="geometry">
            <mxRectangle width="22" height="46" as="alternateBounds" />
          </mxGeometry>
        </mxCell>
        <mxCell id="x0yfb88HtxfDjiXEh2D_-192" value="NOT NULL" style="shape=partialRectangle;connectable=0;fillColor=none;top=0;left=0;bottom=0;right=0;align=left;spacingLeft=2;overflow=hidden;fontSize=11;" vertex="1" parent="x0yfb88HtxfDjiXEh2D_-188">
          <mxGeometry x="342" width="216" height="46" as="geometry">
            <mxRectangle width="216" height="46" as="alternateBounds" />
          </mxGeometry>
        </mxCell>
        <mxCell id="x0yfb88HtxfDjiXEh2D_-193" style="shape=tableRow;horizontal=0;startSize=0;swimlaneHead=0;swimlaneBody=0;fillColor=none;collapsible=0;dropTarget=0;points=[[0,0.5],[1,0.5]];portConstraint=eastwest;top=0;left=0;right=0;bottom=0;" vertex="1" parent="x0yfb88HtxfDjiXEh2D_-167">
          <mxGeometry y="255" width="558" height="46" as="geometry" />
        </mxCell>
        <mxCell id="x0yfb88HtxfDjiXEh2D_-194" value="TIMESTAMP" style="shape=partialRectangle;connectable=0;fillColor=none;top=0;left=0;bottom=0;right=0;align=left;spacingLeft=2;overflow=hidden;fontSize=11;" vertex="1" parent="x0yfb88HtxfDjiXEh2D_-193">
          <mxGeometry width="54" height="46" as="geometry">
            <mxRectangle width="54" height="46" as="alternateBounds" />
          </mxGeometry>
        </mxCell>
        <mxCell id="x0yfb88HtxfDjiXEh2D_-195" value="created_at" style="shape=partialRectangle;connectable=0;fillColor=none;top=0;left=0;bottom=0;right=0;align=left;spacingLeft=2;overflow=hidden;fontSize=11;" vertex="1" parent="x0yfb88HtxfDjiXEh2D_-193">
          <mxGeometry x="54" width="266" height="46" as="geometry">
            <mxRectangle width="266" height="46" as="alternateBounds" />
          </mxGeometry>
        </mxCell>
        <mxCell id="x0yfb88HtxfDjiXEh2D_-196" value="" style="shape=partialRectangle;connectable=0;fillColor=none;top=0;left=0;bottom=0;right=0;align=left;spacingLeft=2;overflow=hidden;fontSize=11;" vertex="1" parent="x0yfb88HtxfDjiXEh2D_-193">
          <mxGeometry x="320" width="22" height="46" as="geometry">
            <mxRectangle width="22" height="46" as="alternateBounds" />
          </mxGeometry>
        </mxCell>
        <mxCell id="x0yfb88HtxfDjiXEh2D_-197" value="DEFAULT CURRENT_TIMESTAMP" style="shape=partialRectangle;connectable=0;fillColor=none;top=0;left=0;bottom=0;right=0;align=left;spacingLeft=2;overflow=hidden;fontSize=11;" vertex="1" parent="x0yfb88HtxfDjiXEh2D_-193">
          <mxGeometry x="342" width="216" height="46" as="geometry">
            <mxRectangle width="216" height="46" as="alternateBounds" />
          </mxGeometry>
        </mxCell>
        <mxCell id="x0yfb88HtxfDjiXEh2D_-198" value="MESSAGE" style="shape=table;startSize=25;container=1;collapsible=0;childLayout=tableLayout;fixedRows=1;rowLines=1;fontStyle=1;align=center;resizeLast=1;" vertex="1" parent="1">
          <mxGeometry x="125" y="592" width="519" height="256" as="geometry" />
        </mxCell>
        <mxCell id="x0yfb88HtxfDjiXEh2D_-199" style="shape=tableRow;horizontal=0;startSize=0;swimlaneHead=0;swimlaneBody=0;fillColor=none;collapsible=0;dropTarget=0;points=[[0,0.5],[1,0.5]];portConstraint=eastwest;top=0;left=0;right=0;bottom=0;" vertex="1" parent="x0yfb88HtxfDjiXEh2D_-198">
          <mxGeometry y="25" width="519" height="46" as="geometry" />
        </mxCell>
        <mxCell id="x0yfb88HtxfDjiXEh2D_-200" value="UUID" style="shape=partialRectangle;connectable=0;fillColor=none;top=0;left=0;bottom=0;right=0;align=left;spacingLeft=2;overflow=hidden;fontSize=11;" vertex="1" parent="x0yfb88HtxfDjiXEh2D_-199">
          <mxGeometry width="54" height="46" as="geometry">
            <mxRectangle width="54" height="46" as="alternateBounds" />
          </mxGeometry>
        </mxCell>
        <mxCell id="x0yfb88HtxfDjiXEh2D_-201" value="message_id" style="shape=partialRectangle;connectable=0;fillColor=none;top=0;left=0;bottom=0;right=0;align=left;spacingLeft=2;overflow=hidden;fontSize=11;" vertex="1" parent="x0yfb88HtxfDjiXEh2D_-199">
          <mxGeometry x="54" width="275" height="46" as="geometry">
            <mxRectangle width="275" height="46" as="alternateBounds" />
          </mxGeometry>
        </mxCell>
        <mxCell id="x0yfb88HtxfDjiXEh2D_-202" value="PK" style="shape=partialRectangle;connectable=0;fillColor=none;top=0;left=0;bottom=0;right=0;align=left;spacingLeft=2;overflow=hidden;fontSize=11;" vertex="1" parent="x0yfb88HtxfDjiXEh2D_-199">
          <mxGeometry x="329" width="22" height="46" as="geometry">
            <mxRectangle width="22" height="46" as="alternateBounds" />
          </mxGeometry>
        </mxCell>
        <mxCell id="x0yfb88HtxfDjiXEh2D_-203" value="Primary Key, Indexed" style="shape=partialRectangle;connectable=0;fillColor=none;top=0;left=0;bottom=0;right=0;align=left;spacingLeft=2;overflow=hidden;fontSize=11;" vertex="1" parent="x0yfb88HtxfDjiXEh2D_-199">
          <mxGeometry x="351" width="168" height="46" as="geometry">
            <mxRectangle width="168" height="46" as="alternateBounds" />
          </mxGeometry>
        </mxCell>
        <mxCell id="x0yfb88HtxfDjiXEh2D_-204" style="shape=tableRow;horizontal=0;startSize=0;swimlaneHead=0;swimlaneBody=0;fillColor=none;collapsible=0;dropTarget=0;points=[[0,0.5],[1,0.5]];portConstraint=eastwest;top=0;left=0;right=0;bottom=0;" vertex="1" parent="x0yfb88HtxfDjiXEh2D_-198">
          <mxGeometry y="71" width="519" height="46" as="geometry" />
        </mxCell>
        <mxCell id="x0yfb88HtxfDjiXEh2D_-205" value="UUID" style="shape=partialRectangle;connectable=0;fillColor=none;top=0;left=0;bottom=0;right=0;align=left;spacingLeft=2;overflow=hidden;fontSize=11;" vertex="1" parent="x0yfb88HtxfDjiXEh2D_-204">
          <mxGeometry width="54" height="46" as="geometry">
            <mxRectangle width="54" height="46" as="alternateBounds" />
          </mxGeometry>
        </mxCell>
        <mxCell id="x0yfb88HtxfDjiXEh2D_-206" value="sender_id" style="shape=partialRectangle;connectable=0;fillColor=none;top=0;left=0;bottom=0;right=0;align=left;spacingLeft=2;overflow=hidden;fontSize=11;" vertex="1" parent="x0yfb88HtxfDjiXEh2D_-204">
          <mxGeometry x="54" width="275" height="46" as="geometry">
            <mxRectangle width="275" height="46" as="alternateBounds" />
          </mxGeometry>
        </mxCell>
        <mxCell id="x0yfb88HtxfDjiXEh2D_-207" value="FK" style="shape=partialRectangle;connectable=0;fillColor=none;top=0;left=0;bottom=0;right=0;align=left;spacingLeft=2;overflow=hidden;fontSize=11;" vertex="1" parent="x0yfb88HtxfDjiXEh2D_-204">
          <mxGeometry x="329" width="22" height="46" as="geometry">
            <mxRectangle width="22" height="46" as="alternateBounds" />
          </mxGeometry>
        </mxCell>
        <mxCell id="x0yfb88HtxfDjiXEh2D_-208" value="Foreign Key to USER(user_id)" style="shape=partialRectangle;connectable=0;fillColor=none;top=0;left=0;bottom=0;right=0;align=left;spacingLeft=2;overflow=hidden;fontSize=11;" vertex="1" parent="x0yfb88HtxfDjiXEh2D_-204">
          <mxGeometry x="351" width="168" height="46" as="geometry">
            <mxRectangle width="168" height="46" as="alternateBounds" />
          </mxGeometry>
        </mxCell>
        <mxCell id="x0yfb88HtxfDjiXEh2D_-209" style="shape=tableRow;horizontal=0;startSize=0;swimlaneHead=0;swimlaneBody=0;fillColor=none;collapsible=0;dropTarget=0;points=[[0,0.5],[1,0.5]];portConstraint=eastwest;top=0;left=0;right=0;bottom=0;" vertex="1" parent="x0yfb88HtxfDjiXEh2D_-198">
          <mxGeometry y="117" width="519" height="46" as="geometry" />
        </mxCell>
        <mxCell id="x0yfb88HtxfDjiXEh2D_-210" value="UUID" style="shape=partialRectangle;connectable=0;fillColor=none;top=0;left=0;bottom=0;right=0;align=left;spacingLeft=2;overflow=hidden;fontSize=11;" vertex="1" parent="x0yfb88HtxfDjiXEh2D_-209">
          <mxGeometry width="54" height="46" as="geometry">
            <mxRectangle width="54" height="46" as="alternateBounds" />
          </mxGeometry>
        </mxCell>
        <mxCell id="x0yfb88HtxfDjiXEh2D_-211" value="recipient_id" style="shape=partialRectangle;connectable=0;fillColor=none;top=0;left=0;bottom=0;right=0;align=left;spacingLeft=2;overflow=hidden;fontSize=11;" vertex="1" parent="x0yfb88HtxfDjiXEh2D_-209">
          <mxGeometry x="54" width="275" height="46" as="geometry">
            <mxRectangle width="275" height="46" as="alternateBounds" />
          </mxGeometry>
        </mxCell>
        <mxCell id="x0yfb88HtxfDjiXEh2D_-212" value="FK" style="shape=partialRectangle;connectable=0;fillColor=none;top=0;left=0;bottom=0;right=0;align=left;spacingLeft=2;overflow=hidden;fontSize=11;" vertex="1" parent="x0yfb88HtxfDjiXEh2D_-209">
          <mxGeometry x="329" width="22" height="46" as="geometry">
            <mxRectangle width="22" height="46" as="alternateBounds" />
          </mxGeometry>
        </mxCell>
        <mxCell id="x0yfb88HtxfDjiXEh2D_-213" value="Foreign Key to USER(user_id)" style="shape=partialRectangle;connectable=0;fillColor=none;top=0;left=0;bottom=0;right=0;align=left;spacingLeft=2;overflow=hidden;fontSize=11;" vertex="1" parent="x0yfb88HtxfDjiXEh2D_-209">
          <mxGeometry x="351" width="168" height="46" as="geometry">
            <mxRectangle width="168" height="46" as="alternateBounds" />
          </mxGeometry>
        </mxCell>
        <mxCell id="x0yfb88HtxfDjiXEh2D_-214" style="shape=tableRow;horizontal=0;startSize=0;swimlaneHead=0;swimlaneBody=0;fillColor=none;collapsible=0;dropTarget=0;points=[[0,0.5],[1,0.5]];portConstraint=eastwest;top=0;left=0;right=0;bottom=0;" vertex="1" parent="x0yfb88HtxfDjiXEh2D_-198">
          <mxGeometry y="163" width="519" height="46" as="geometry" />
        </mxCell>
        <mxCell id="x0yfb88HtxfDjiXEh2D_-215" value="TEXT" style="shape=partialRectangle;connectable=0;fillColor=none;top=0;left=0;bottom=0;right=0;align=left;spacingLeft=2;overflow=hidden;fontSize=11;" vertex="1" parent="x0yfb88HtxfDjiXEh2D_-214">
          <mxGeometry width="54" height="46" as="geometry">
            <mxRectangle width="54" height="46" as="alternateBounds" />
          </mxGeometry>
        </mxCell>
        <mxCell id="x0yfb88HtxfDjiXEh2D_-216" value="message_body" style="shape=partialRectangle;connectable=0;fillColor=none;top=0;left=0;bottom=0;right=0;align=left;spacingLeft=2;overflow=hidden;fontSize=11;" vertex="1" parent="x0yfb88HtxfDjiXEh2D_-214">
          <mxGeometry x="54" width="275" height="46" as="geometry">
            <mxRectangle width="275" height="46" as="alternateBounds" />
          </mxGeometry>
        </mxCell>
        <mxCell id="x0yfb88HtxfDjiXEh2D_-217" value="" style="shape=partialRectangle;connectable=0;fillColor=none;top=0;left=0;bottom=0;right=0;align=left;spacingLeft=2;overflow=hidden;fontSize=11;" vertex="1" parent="x0yfb88HtxfDjiXEh2D_-214">
          <mxGeometry x="329" width="22" height="46" as="geometry">
            <mxRectangle width="22" height="46" as="alternateBounds" />
          </mxGeometry>
        </mxCell>
        <mxCell id="x0yfb88HtxfDjiXEh2D_-218" value="NOT NULL" style="shape=partialRectangle;connectable=0;fillColor=none;top=0;left=0;bottom=0;right=0;align=left;spacingLeft=2;overflow=hidden;fontSize=11;" vertex="1" parent="x0yfb88HtxfDjiXEh2D_-214">
          <mxGeometry x="351" width="168" height="46" as="geometry">
            <mxRectangle width="168" height="46" as="alternateBounds" />
          </mxGeometry>
        </mxCell>
        <mxCell id="x0yfb88HtxfDjiXEh2D_-219" style="shape=tableRow;horizontal=0;startSize=0;swimlaneHead=0;swimlaneBody=0;fillColor=none;collapsible=0;dropTarget=0;points=[[0,0.5],[1,0.5]];portConstraint=eastwest;top=0;left=0;right=0;bottom=0;" vertex="1" parent="x0yfb88HtxfDjiXEh2D_-198">
          <mxGeometry y="209" width="519" height="46" as="geometry" />
        </mxCell>
        <mxCell id="x0yfb88HtxfDjiXEh2D_-220" value="TIMESTAMP" style="shape=partialRectangle;connectable=0;fillColor=none;top=0;left=0;bottom=0;right=0;align=left;spacingLeft=2;overflow=hidden;fontSize=11;" vertex="1" parent="x0yfb88HtxfDjiXEh2D_-219">
          <mxGeometry width="54" height="46" as="geometry">
            <mxRectangle width="54" height="46" as="alternateBounds" />
          </mxGeometry>
        </mxCell>
        <mxCell id="x0yfb88HtxfDjiXEh2D_-221" value="sent_at" style="shape=partialRectangle;connectable=0;fillColor=none;top=0;left=0;bottom=0;right=0;align=left;spacingLeft=2;overflow=hidden;fontSize=11;" vertex="1" parent="x0yfb88HtxfDjiXEh2D_-219">
          <mxGeometry x="54" width="275" height="46" as="geometry">
            <mxRectangle width="275" height="46" as="alternateBounds" />
          </mxGeometry>
        </mxCell>
        <mxCell id="x0yfb88HtxfDjiXEh2D_-222" value="" style="shape=partialRectangle;connectable=0;fillColor=none;top=0;left=0;bottom=0;right=0;align=left;spacingLeft=2;overflow=hidden;fontSize=11;" vertex="1" parent="x0yfb88HtxfDjiXEh2D_-219">
          <mxGeometry x="329" width="22" height="46" as="geometry">
            <mxRectangle width="22" height="46" as="alternateBounds" />
          </mxGeometry>
        </mxCell>
        <mxCell id="x0yfb88HtxfDjiXEh2D_-223" value="DEFAULT CURRENT_TIMESTAMP" style="shape=partialRectangle;connectable=0;fillColor=none;top=0;left=0;bottom=0;right=0;align=left;spacingLeft=2;overflow=hidden;fontSize=11;" vertex="1" parent="x0yfb88HtxfDjiXEh2D_-219">
          <mxGeometry x="351" width="168" height="46" as="geometry">
            <mxRectangle width="168" height="46" as="alternateBounds" />
          </mxGeometry>
        </mxCell>
        <mxCell id="x0yfb88HtxfDjiXEh2D_-224" value="hosts" style="curved=1;startArrow=ERmandOne;startSize=10;;endArrow=ERzeroToMany;endSize=10;;exitX=1;exitY=0.95;entryX=0.5;entryY=0;rounded=0;" edge="1" parent="1" source="x0yfb88HtxfDjiXEh2D_-18" target="x0yfb88HtxfDjiXEh2D_-59">
          <mxGeometry x="-0.0736" y="-22" relative="1" as="geometry">
            <Array as="points">
              <mxPoint x="1050" y="476" />
            </Array>
            <mxPoint as="offset" />
          </mxGeometry>
        </mxCell>
        <mxCell id="x0yfb88HtxfDjiXEh2D_-225" value="makes" style="curved=0;startArrow=ERmandOne;startSize=10;;endArrow=ERzeroToMany;endSize=10;;exitX=0;exitY=0.75;entryX=0;entryY=0.14;rounded=0;" edge="1" parent="1" source="x0yfb88HtxfDjiXEh2D_-18" target="x0yfb88HtxfDjiXEh2D_-100">
          <mxGeometry relative="1" as="geometry">
            <Array as="points">
              <mxPoint x="20" y="476" />
              <mxPoint x="40" y="690" />
              <mxPoint x="20" y="964" />
            </Array>
          </mxGeometry>
        </mxCell>
        <mxCell id="x0yfb88HtxfDjiXEh2D_-226" value="writes" style="curved=0;startArrow=ERmandOne;startSize=10;;endArrow=ERzeroToMany;endSize=10;;exitX=1;exitY=0.72;entryX=0.31;entryY=0;rounded=1;" edge="1" parent="1" source="x0yfb88HtxfDjiXEh2D_-18" target="x0yfb88HtxfDjiXEh2D_-167">
          <mxGeometry relative="1" as="geometry">
            <Array as="points">
              <mxPoint x="1421" y="476" />
              <mxPoint x="1440" y="590" />
              <mxPoint x="1421" y="964" />
            </Array>
          </mxGeometry>
        </mxCell>
        <mxCell id="x0yfb88HtxfDjiXEh2D_-227" value="sends" style="curved=1;startArrow=ERmandOne;startSize=10;;endArrow=ERzeroToMany;endSize=10;;exitX=0;exitY=0.86;entryX=0.34;entryY=0;rounded=0;" edge="1" parent="1" source="x0yfb88HtxfDjiXEh2D_-18" target="x0yfb88HtxfDjiXEh2D_-198">
          <mxGeometry relative="1" as="geometry">
            <Array as="points">
              <mxPoint x="330" y="460" />
              <mxPoint x="320" y="490" />
              <mxPoint x="290" y="530" />
            </Array>
          </mxGeometry>
        </mxCell>
        <mxCell id="x0yfb88HtxfDjiXEh2D_-228" value="receives" style="curved=1;startArrow=ERmandOne;startSize=10;;endArrow=ERzeroToMany;endSize=10;;exitX=0.5;exitY=1;entryX=0.8;entryY=0;rounded=0;" edge="1" parent="1" source="x0yfb88HtxfDjiXEh2D_-18" target="x0yfb88HtxfDjiXEh2D_-198">
          <mxGeometry relative="1" as="geometry">
            <Array as="points">
              <mxPoint x="681" y="476" />
            </Array>
          </mxGeometry>
        </mxCell>
        <mxCell id="x0yfb88HtxfDjiXEh2D_-229" value="has" style="curved=1;startArrow=ERmandOne;startSize=10;;endArrow=ERzeroToMany;endSize=10;;exitX=0.5;exitY=1;entryX=1;entryY=0.14;rounded=0;" edge="1" parent="1" source="x0yfb88HtxfDjiXEh2D_-59" target="x0yfb88HtxfDjiXEh2D_-100">
          <mxGeometry relative="1" as="geometry">
            <Array as="points">
              <mxPoint x="1050" y="964" />
            </Array>
          </mxGeometry>
        </mxCell>
        <mxCell id="x0yfb88HtxfDjiXEh2D_-230" value="receives" style="curved=1;startArrow=ERmandOne;startSize=10;;endArrow=ERzeroToMany;endSize=10;;exitX=1;exitY=0.8;entryX=0.53;entryY=0;rounded=0;" edge="1" parent="1" source="x0yfb88HtxfDjiXEh2D_-59" target="x0yfb88HtxfDjiXEh2D_-167">
          <mxGeometry relative="1" as="geometry">
            <Array as="points">
              <mxPoint x="1615" y="964" />
            </Array>
          </mxGeometry>
        </mxCell>
        <mxCell id="x0yfb88HtxfDjiXEh2D_-231" value="includes" style="curved=1;startArrow=ERmandOne;startSize=10;;endArrow=ERzeroToMany;endSize=10;;exitX=0.5;exitY=1;entryX=0.5;entryY=0;rounded=0;" edge="1" parent="1" source="x0yfb88HtxfDjiXEh2D_-100" target="x0yfb88HtxfDjiXEh2D_-141">
          <mxGeometry relative="1" as="geometry">
            <Array as="points" />
          </mxGeometry>
        </mxCell>
      </root>
    </mxGraphModel>
  </diagram>
</mxfile>
